<svg width="1440" height="770" viewBox="0 0 1440 770" fill="none" xmlns="http://www.w3.org/2000/svg">
<mask id="mask0_907_12245" style="mask-type:alpha" maskUnits="userSpaceOnUse" x="0" y="0" width="1440" height="770">
<rect width="1440" height="770" fill="#D9D9D9"/>
</mask>
<g mask="url(#mask0_907_12245)">
<g opacity="0.18">
<path opacity="0.010101" d="M708.149 -494.275C715.658 -497.076 724.117 -494.724 729.102 -488.448L1176.56 74.8831C1181.54 81.159 1181.92 89.9309 1177.49 96.6111L780.004 696.247C775.575 702.927 767.349 705.996 759.628 703.849L66.5099 511.112C58.7882 508.965 53.3273 502.09 52.9833 494.083L22.1015 -224.67C21.7574 -232.678 26.6085 -239.996 34.1176 -242.798L708.149 -494.275Z" stroke="url(#paint0_radial_907_12245)" stroke-width="3"/>
<path opacity="0.020202" d="M719.042 -497.638C726.599 -500.308 735.015 -497.808 739.89 -491.446L1176.62 78.5242C1181.49 84.8861 1181.71 93.6632 1177.17 100.265L770.052 691.747C765.508 698.349 757.229 701.274 749.546 698.992L61.207 494.577C53.5239 492.296 48.1838 485.326 47.9795 477.314L29.6812 -240.503C29.4769 -248.515 34.455 -255.747 42.0118 -258.417L719.042 -497.638Z" stroke="url(#paint1_radial_907_12245)" stroke-width="3"/>
<path opacity="0.030303" d="M729.844 -500.831C737.446 -503.369 745.818 -500.723 750.581 -494.277L1176.48 82.1305C1181.24 88.5765 1181.31 97.3562 1176.66 103.878L760.07 687.053C755.412 693.575 747.083 696.355 739.441 693.939L56.0769 477.954C48.4349 475.539 43.2172 468.477 43.1529 460.463L37.3959 -256.199C37.3315 -264.213 42.4351 -271.357 50.0373 -273.895L729.844 -500.831Z" stroke="url(#paint2_radial_907_12245)" stroke-width="3"/>
<path opacity="0.040404" d="M740.551 -503.853C748.197 -506.258 756.521 -503.466 761.171 -496.938L1176.15 85.7016C1180.8 92.2298 1180.72 101.009 1175.95 107.449L750.063 682.167C745.291 688.607 736.915 691.241 729.317 688.693L51.1207 461.248C43.5219 458.7 38.4283 451.548 38.5038 443.534L45.2423 -271.753C45.3178 -279.767 50.5453 -286.822 58.1907 -289.226L740.551 -503.853Z" stroke="url(#paint3_radial_907_12245)" stroke-width="3"/>
<path opacity="0.050505" d="M751.163 -506.708C758.849 -508.979 767.124 -506.042 771.659 -499.434L1175.64 89.2335C1180.17 95.8418 1179.94 104.619 1175.05 110.974L740.033 677.089C735.15 683.444 726.73 685.932 719.177 683.251L46.3408 444.462C38.7877 441.781 33.8197 434.542 34.0351 426.53L53.2193 -287.165C53.4347 -295.176 58.7844 -302.138 66.4707 -304.409L751.163 -506.708Z" stroke="url(#paint4_radial_907_12245)" stroke-width="3"/>
<path opacity="0.0606061" d="M761.679 -509.395C769.404 -511.532 777.626 -508.451 782.045 -501.765L1174.94 92.7242C1179.35 99.4106 1178.97 108.182 1173.97 114.451L729.989 671.819C724.996 678.088 716.533 680.429 709.028 677.617L41.741 427.6C34.2358 424.788 29.3949 417.463 29.7501 409.457L61.3266 -302.43C61.6817 -310.437 67.1521 -317.304 74.8768 -319.441L761.679 -509.395Z" stroke="url(#paint5_radial_907_12245)" stroke-width="3"/>
<path opacity="0.0707071" d="M772.093 -511.918C779.854 -513.919 788.021 -510.696 792.322 -503.933L1174.04 96.1694C1178.35 102.932 1177.8 111.695 1172.7 117.876L719.929 666.358C714.827 672.538 706.325 674.731 698.87 671.788L37.3188 410.666C29.8638 407.723 25.1514 400.315 25.6463 392.316L69.5578 -317.548C70.0526 -325.548 75.6421 -332.319 83.4029 -334.32L772.093 -511.918Z" stroke="url(#paint6_radial_907_12245)" stroke-width="3"/>
<path opacity="0.0808081" d="M782.401 -514.279C790.196 -516.145 798.305 -512.779 802.488 -505.942L1172.97 99.5657C1177.15 106.402 1176.45 115.155 1171.24 121.246L709.856 660.704C704.647 666.794 696.108 668.838 688.706 665.766L33.0737 393.661C25.6712 390.589 21.0889 383.1 21.7233 375.11L77.9088 -332.518C78.5431 -340.507 84.2499 -347.18 92.0445 -349.045L782.401 -514.279Z" stroke="url(#paint7_radial_907_12245)" stroke-width="3"/>
<path opacity="0.0909091" d="M792.604 -516.481C800.43 -518.21 808.479 -514.703 812.542 -507.795L1171.7 102.909C1175.77 109.818 1174.92 118.557 1169.6 124.556L699.777 654.857C694.462 660.856 685.889 662.751 678.541 659.55L29.0101 376.59C21.6624 373.389 17.2114 365.82 17.9852 357.843L86.3801 -347.337C87.1539 -355.314 92.9762 -361.886 100.802 -363.616L792.604 -516.481Z" stroke="url(#paint8_radial_907_12245)" stroke-width="3"/>
<path opacity="0.10101" d="M802.699 -518.524C810.554 -520.117 818.541 -516.47 822.482 -509.492L1170.26 106.199C1174.2 113.177 1173.2 121.9 1167.78 127.805L689.695 648.82C684.277 654.725 675.672 656.47 668.381 653.141L25.1295 359.455C17.8387 356.127 13.5205 348.482 14.4334 340.519L94.9694 -362.003C95.8823 -369.966 101.818 -376.435 109.673 -378.027L802.699 -518.524Z" stroke="url(#paint9_radial_907_12245)" stroke-width="3"/>
<path opacity="0.111111" d="M812.679 -520.413C820.56 -521.868 828.482 -518.083 832.302 -511.037L1168.63 109.429C1172.45 116.475 1171.3 125.179 1165.78 130.989L679.609 642.59C674.088 648.4 665.454 649.994 658.223 646.538L21.4272 342.26C14.1956 338.804 10.0116 331.086 11.0632 323.14L103.668 -376.516C104.72 -384.461 110.768 -390.826 118.65 -392.281L812.679 -520.413Z" stroke="url(#paint10_radial_907_12245)" stroke-width="3"/>
<path opacity="0.121212" d="M822.547 -522.149C830.453 -523.466 838.307 -519.543 842.003 -512.432L1166.82 112.597C1170.52 119.709 1169.21 128.391 1163.59 134.104L669.529 636.169C663.907 641.882 655.247 643.325 648.077 639.744L17.9104 325.008C10.7402 321.427 6.69152 313.636 7.88167 305.71L112.481 -390.872C113.671 -398.798 119.829 -405.056 127.735 -406.373L822.547 -522.149Z" stroke="url(#paint11_radial_907_12245)" stroke-width="3"/>
<path opacity="0.131313" d="M832.296 -523.734C840.224 -524.913 848.009 -520.853 851.58 -513.678L1164.83 115.701C1168.4 122.876 1166.95 131.535 1161.23 137.149L659.452 629.558C653.732 635.172 645.047 636.463 637.941 632.758L14.5744 307.704C7.46786 303.998 3.55572 296.138 4.88401 288.234L121.398 -405.07C122.726 -412.974 128.993 -419.123 136.92 -420.302L832.296 -523.734Z" stroke="url(#paint12_radial_907_12245)" stroke-width="3"/>
<path opacity="0.141414" d="M841.927 -525.172C849.874 -526.213 857.587 -522.018 861.032 -514.781L1162.67 118.736C1166.11 125.973 1164.5 134.604 1158.69 140.117L649.386 622.755C643.568 628.268 634.862 629.408 627.822 625.579L11.4232 290.348C4.38239 286.519 0.608034 278.591 2.07407 270.712L130.42 -419.11C131.886 -426.99 138.259 -433.029 146.206 -434.07L841.927 -525.172Z" stroke="url(#paint13_radial_907_12245)" stroke-width="3"/>
<path opacity="0.151515" d="M851.436 -526.462C859.4 -527.363 867.039 -523.035 870.357 -515.739L1160.32 121.703C1163.64 128.998 1161.88 137.601 1155.97 143.011L639.333 615.765C633.42 621.176 624.696 622.163 617.723 618.212L8.45698 272.948C1.4841 268.996 -2.15138 261.004 -0.548045 253.152L139.544 -432.987C141.147 -440.84 147.625 -446.767 155.589 -447.669L851.436 -526.462Z" stroke="url(#paint14_radial_907_12245)" stroke-width="3"/>
<path opacity="0.161616" d="M860.821 -527.609C868.799 -528.372 876.361 -523.91 879.552 -516.558L1157.8 124.594C1161 131.947 1159.09 140.517 1153.08 145.824L629.295 608.584C623.288 613.891 614.548 614.726 607.645 610.654L5.67451 255.503C-1.22835 251.43 -4.72374 243.376 -2.98361 235.553L148.766 -446.703C150.506 -454.527 157.086 -460.34 165.064 -461.103L860.821 -527.609Z" stroke="url(#paint15_radial_907_12245)" stroke-width="3"/>
<path opacity="0.171717" d="M870.078 -528.615C878.069 -529.238 885.552 -524.646 888.614 -517.239L1155.11 127.41C1158.17 134.817 1156.12 143.353 1150.02 148.554L619.276 601.216C613.178 606.417 604.424 607.1 597.593 602.908L3.07648 238.019C-3.75425 233.827 -7.10857 225.713 -5.23216 217.921L158.081 -460.255C159.958 -468.047 166.638 -473.744 174.628 -474.367L870.078 -528.615Z" stroke="url(#paint16_radial_907_12245)" stroke-width="3"/>
<path opacity="0.181818" d="M879.208 -529.483C887.208 -529.967 894.61 -525.245 897.542 -517.785L1152.25 130.145C1155.18 137.604 1152.98 146.103 1146.79 151.197L609.28 593.66C603.092 598.753 594.328 599.283 587.572 594.972L0.665079 220.499C-6.09144 216.188 -9.30365 208.016 -7.29153 200.258L167.49 -473.642C169.502 -481.4 176.281 -486.98 184.281 -487.464L879.208 -529.483Z" stroke="url(#paint17_radial_907_12245)" stroke-width="3"/>
<path opacity="0.191919" d="M888.206 -530.216C896.214 -530.56 903.532 -525.709 906.333 -518.2L1149.22 132.797C1152.02 140.307 1149.67 148.766 1143.39 153.75L599.31 585.916C593.034 590.9 584.262 591.277 577.582 586.849L-1.56147 202.944C-8.24173 198.516 -11.3108 190.29 -9.16363 182.568L176.986 -486.863C179.134 -494.585 186.009 -500.046 194.016 -500.39L888.206 -530.216Z" stroke="url(#paint18_radial_907_12245)" stroke-width="3"/>
<path opacity="0.20202" d="M897.075 -530.814C905.087 -531.018 912.319 -526.04 914.99 -518.483L1146.02 135.367C1148.69 142.923 1146.19 151.34 1139.83 156.215L589.372 577.988C583.011 582.863 574.233 583.086 567.632 578.542L-3.59868 185.363C-10.2006 180.818 -13.1257 172.54 -10.844 164.857L186.572 -499.914C188.854 -507.597 195.823 -512.937 203.835 -513.142L897.075 -530.814Z" stroke="url(#paint19_radial_907_12245)" stroke-width="3"/>
<path opacity="0.212121" d="M905.804 -531.282C913.819 -531.346 920.963 -526.242 923.501 -518.64L1142.65 137.846C1145.19 145.449 1142.54 153.82 1136.1 158.583L579.463 569.874C573.017 574.636 564.238 574.707 557.716 570.048L-5.45391 167.753C-11.9756 163.095 -14.7557 154.766 -12.3403 147.124L196.236 -512.798C198.651 -520.44 205.713 -525.658 213.727 -525.722L905.804 -531.282Z" stroke="url(#paint20_radial_907_12245)" stroke-width="3"/>
<path opacity="0.222222" d="M914.399 -531.62C922.413 -531.545 929.467 -526.317 931.872 -518.672L1139.12 140.236C1141.53 147.882 1138.74 156.206 1132.21 160.856L569.593 561.577C563.065 566.226 554.285 566.143 547.846 561.372L-7.12014 150.122C-13.5595 145.351 -16.1939 136.975 -13.6455 129.376L205.982 -525.51C208.53 -533.109 215.682 -538.203 223.696 -538.127L914.399 -531.62Z" stroke="url(#paint21_radial_907_12245)" stroke-width="3"/>
<path opacity="0.232323" d="M922.853 -531.835C930.865 -531.62 937.827 -526.27 940.098 -518.584L1135.43 142.531C1137.7 150.217 1134.76 158.492 1128.16 163.027L559.759 553.095C553.151 557.63 544.374 557.394 538.019 552.51L-8.60164 132.47C-14.9567 127.587 -17.4445 119.167 -14.7639 111.614L215.802 -538.053C218.483 -545.606 225.722 -550.574 233.734 -550.359L922.853 -531.835Z" stroke="url(#paint22_radial_907_12245)" stroke-width="3"/>
<path opacity="0.242424" d="M931.165 -531.929C939.172 -531.574 946.039 -526.103 948.176 -518.378L1131.58 144.729C1133.71 152.453 1130.63 160.675 1123.95 165.094L549.968 544.43C543.281 548.849 534.51 548.459 528.241 543.466L-9.89774 114.801C-16.1666 109.808 -18.5071 101.345 -15.6951 93.8401L225.695 -550.425C228.507 -557.93 235.832 -562.771 243.839 -562.416L931.165 -531.929Z" stroke="url(#paint23_radial_907_12245)" stroke-width="3"/>
<path opacity="0.252525" d="M939.336 -531.9C947.335 -531.405 954.106 -525.816 956.108 -518.055L1127.57 146.829C1129.57 154.59 1126.34 162.757 1119.58 167.058L540.223 535.586C533.461 539.887 524.697 539.345 518.516 534.243L-11.0057 97.121C-17.1864 92.0188 -19.3789 83.5169 -16.4363 76.062L235.66 -562.621C238.602 -570.076 246.011 -574.789 254.01 -574.294L939.336 -531.9Z" stroke="url(#paint24_radial_907_12245)" stroke-width="3"/>
<path opacity="0.262626" d="M947.363 -531.756C955.352 -531.121 962.025 -525.415 963.89 -517.62L1123.4 148.827C1125.27 156.621 1121.9 164.731 1115.06 168.913L530.527 526.561C523.691 530.744 514.938 530.049 508.847 524.839L-11.9272 79.4306C-18.018 74.2212 -20.0617 65.6824 -16.9895 58.2799L245.691 -574.645C248.764 -582.048 256.253 -586.63 264.242 -585.996L947.363 -531.756Z" stroke="url(#paint25_radial_907_12245)" stroke-width="3"/>
<path opacity="0.272727" d="M955.241 -531.497C963.218 -530.723 969.79 -524.901 971.519 -517.075L1119.08 150.721C1120.81 158.547 1117.3 166.596 1110.39 170.659L520.881 517.358C513.973 521.421 505.234 520.573 499.235 515.258L-12.6646 61.7341C-18.6636 56.4192 -20.558 47.846 -17.357 40.4983L255.784 -586.494C258.985 -593.841 266.553 -598.292 274.531 -597.519L955.241 -531.497Z" stroke="url(#paint26_radial_907_12245)" stroke-width="3"/>
<path opacity="0.282828" d="M962.97 -531.125C970.933 -530.213 977.402 -524.276 978.995 -516.422L1114.61 152.509C1116.2 160.364 1112.55 168.351 1105.57 172.293L511.29 507.978C504.312 511.92 495.589 510.92 489.683 505.501L-13.2166 44.0361C-19.1219 38.6174 -20.8664 30.0124 -17.5377 22.7217L265.937 -598.165C269.266 -605.456 276.911 -609.774 284.873 -608.861L962.97 -531.125Z" stroke="url(#paint27_radial_907_12245)" stroke-width="3"/>
<path opacity="0.292929" d="M970.549 -530.649C978.495 -529.597 984.859 -523.549 986.314 -515.667L1109.98 154.185C1111.44 162.066 1107.65 169.989 1100.61 173.808L501.756 498.42C494.71 502.239 486.005 501.087 480.196 495.566L-13.5842 26.3354C-19.394 20.8144 -20.988 12.1803 -17.5326 4.94879L276.146 -609.664C279.602 -616.896 287.321 -621.08 295.266 -620.028L970.549 -530.649Z" stroke="url(#paint28_radial_907_12245)" stroke-width="3"/>
<path opacity="0.30303" d="M977.979 -530.064C985.905 -528.874 992.163 -522.716 993.48 -514.81L1105.22 155.752C1106.53 163.657 1102.61 171.512 1095.5 175.208L492.284 488.689C485.172 492.385 476.49 491.081 470.777 485.46L-13.7646 8.64054C-19.4772 3.01902 -20.9203 -5.64156 -17.3392 -12.8117L286.411 -620.984C289.992 -628.154 297.783 -632.202 305.709 -631.012L977.979 -530.064Z" stroke="url(#paint29_radial_907_12245)" stroke-width="3"/>
<path opacity="0.313131" d="M985.253 -529.377C993.157 -528.049 999.307 -521.782 1000.49 -513.855L1100.3 157.203C1101.48 165.131 1097.42 172.916 1090.24 176.487L482.875 478.785C475.7 482.356 467.041 480.901 461.427 475.18L-13.7623 -9.04778C-19.3759 -14.7682 -20.6677 -23.4526 -16.9619 -30.5592L296.725 -632.126C300.43 -639.233 308.291 -643.145 316.194 -641.817L985.253 -529.377Z" stroke="url(#paint30_radial_907_12245)" stroke-width="3"/>
<path opacity="0.323232" d="M992.375 -528.59C1000.25 -527.124 1006.29 -520.751 1007.33 -512.804L1095.24 158.54C1096.29 166.487 1092.09 174.2 1084.85 177.645L473.534 468.71C466.298 472.155 457.666 470.549 452.153 464.731L-13.5741 -26.7248C-19.087 -32.5423 -20.227 -41.2479 -16.3978 -48.2887L307.087 -643.09C310.916 -650.13 318.844 -653.905 326.723 -652.439L992.375 -528.59Z" stroke="url(#paint31_radial_907_12245)" stroke-width="3"/>
<path opacity="0.333333" d="M999.338 -527.705C1007.19 -526.102 1013.12 -519.624 1014.02 -511.66L1090.05 159.758C1090.95 167.722 1086.62 175.361 1079.32 178.679L464.26 458.465C456.965 461.783 448.362 460.027 442.952 454.114L-13.2048 -44.3876C-18.6154 -50.3004 -19.6032 -59.0246 -15.6517 -65.9975L317.491 -653.874C321.443 -660.847 329.435 -664.482 337.287 -662.879L999.338 -527.705Z" stroke="url(#paint32_radial_907_12245)" stroke-width="3"/>
<path opacity="0.343434" d="M1006.15 -526.728C1013.97 -524.987 1019.78 -518.408 1020.54 -510.429L1084.71 160.854C1085.47 168.833 1081.01 176.395 1073.66 179.585L455.061 448.05C447.709 451.241 439.138 449.335 433.832 443.328L-12.6514 -62.035C-17.9579 -68.0413 -18.7934 -76.7815 -14.7208 -83.6844L327.937 -664.481C332.01 -671.384 340.064 -674.879 347.888 -673.139L1006.15 -526.728Z" stroke="url(#paint33_radial_907_12245)" stroke-width="3"/>
<path opacity="0.353535" d="M1012.79 -525.661C1020.58 -523.785 1026.28 -517.105 1026.9 -509.114L1079.24 161.825C1079.86 169.816 1075.27 177.299 1067.86 180.361L445.935 437.467C438.528 440.529 429.992 438.473 424.791 432.375L-11.9174 -79.6643C-17.1183 -85.7624 -17.8011 -94.5158 -13.6087 -101.347L338.419 -674.91C342.612 -681.741 350.725 -685.095 358.517 -683.219L1012.79 -525.661Z" stroke="url(#paint34_radial_907_12245)" stroke-width="3"/>
<path opacity="0.363636" d="M1019.28 -524.505C1027.04 -522.493 1032.62 -515.714 1033.1 -507.714L1073.64 162.673C1074.12 170.673 1069.4 178.075 1061.94 181.007L436.889 426.72C429.43 429.652 420.931 427.448 415.838 421.26L-11.0005 -97.2683C-16.0942 -103.456 -16.6241 -112.22 -12.3131 -118.977L348.937 -685.158C353.248 -691.914 361.419 -695.127 369.177 -693.115L1019.28 -524.505Z" stroke="url(#paint35_radial_907_12245)" stroke-width="3"/>
<path opacity="0.373737" d="M1025.6 -523.265C1033.33 -521.117 1038.79 -514.242 1039.13 -506.235L1067.9 163.393C1068.25 171.401 1063.39 178.719 1055.89 181.52L427.922 415.81C420.413 418.611 411.954 416.259 406.969 409.983L-9.90509 -114.846C-14.89 -121.122 -15.2668 -129.894 -10.8386 -136.574L359.483 -695.226C363.911 -701.906 372.137 -704.975 379.859 -702.828L1025.6 -523.265Z" stroke="url(#paint36_radial_907_12245)" stroke-width="3"/>
<path opacity="0.383838" d="M1031.77 -521.94C1039.45 -519.659 1044.79 -512.689 1044.99 -504.677L1062.04 163.986C1062.24 171.998 1057.27 179.23 1049.71 181.9L419.04 404.74C411.483 407.41 403.067 404.91 398.192 398.548L-8.62821 -132.392C-13.5028 -138.754 -13.7266 -147.531 -9.18239 -154.133L370.058 -705.112C374.602 -711.714 382.88 -714.639 390.563 -712.357L1031.77 -521.94Z" stroke="url(#paint37_radial_907_12245)" stroke-width="3"/>
<path opacity="0.393939" d="M1037.77 -520.541C1045.41 -518.126 1050.63 -511.064 1050.69 -503.05L1056.05 164.443C1056.12 172.458 1051.01 179.602 1043.41 182.14L410.244 393.506C402.642 396.044 394.27 393.398 389.507 386.952L-7.17309 -149.91C-11.9359 -156.356 -12.0064 -165.135 -7.34775 -171.657L380.657 -714.822C385.315 -721.343 393.644 -724.123 401.286 -721.708L1037.77 -520.541Z" stroke="url(#paint38_radial_907_12245)" stroke-width="3"/>
<path opacity="0.40404" d="M1043.6 -519.062C1051.2 -516.514 1056.29 -509.362 1056.22 -501.348L1049.94 164.771C1049.87 172.785 1044.64 179.84 1036.99 182.244L401.539 382.118C393.893 384.523 385.569 381.731 380.919 375.203L-5.53879 -167.387C-10.1884 -173.915 -10.1057 -182.695 -5.33388 -189.134L391.278 -724.347C396.05 -730.786 404.425 -733.421 412.024 -730.872L1043.6 -519.062Z" stroke="url(#paint39_radial_907_12245)" stroke-width="3"/>
<path opacity="0.414141" d="M1049.27 -517.514C1056.82 -514.834 1061.79 -507.594 1061.57 -499.583L1043.71 164.96C1043.5 172.972 1038.15 179.934 1030.46 182.205L392.923 370.571C385.237 372.842 376.962 369.905 372.427 363.297L-3.72944 -184.829C-8.26443 -191.437 -8.02851 -200.214 -3.14505 -206.569L401.915 -733.696C406.798 -740.051 415.218 -742.539 422.772 -739.858L1049.27 -517.514Z" stroke="url(#paint40_radial_907_12245)" stroke-width="3"/>
<path opacity="0.424242" d="M1054.77 -515.896C1062.28 -513.084 1067.12 -505.759 1066.76 -497.753L1037.36 165.012C1037.01 173.019 1031.54 179.887 1023.81 182.023L384.401 358.87C376.677 361.007 368.455 357.926 364.036 351.24L-1.74442 -202.228C-6.16339 -208.915 -5.77432 -217.686 -0.780693 -223.955L412.566 -742.864C417.56 -749.132 426.022 -751.473 433.527 -748.661L1054.77 -515.896Z" stroke="url(#paint41_radial_907_12245)" stroke-width="3"/>
<path opacity="0.434343" d="M1060.1 -514.211C1067.56 -511.268 1072.27 -503.86 1071.78 -495.861L1030.9 164.927C1030.41 172.927 1024.82 179.697 1017.06 181.699L375.978 347.018C368.217 349.02 360.05 345.796 355.748 339.034L0.41615 -219.581C-3.88545 -226.344 -3.34334 -235.107 1.75893 -241.288L423.229 -751.85C428.332 -758.031 436.834 -760.223 444.289 -757.281L1060.1 -514.211Z" stroke="url(#paint42_radial_907_12245)" stroke-width="3"/>
<path opacity="0.444444" d="M1065.27 -512.463C1072.67 -509.391 1077.25 -501.901 1076.62 -493.912L1024.33 164.7C1023.69 172.69 1017.98 179.363 1010.19 181.228L367.652 335.016C359.858 336.882 351.748 333.516 347.565 326.68L2.7493 -236.886C-1.43361 -243.723 -0.738659 -252.475 4.47071 -258.566L433.9 -760.657C439.109 -766.748 447.648 -768.792 455.05 -765.72L1065.27 -512.463Z" stroke="url(#paint43_radial_907_12245)" stroke-width="3"/>
<path opacity="0.454545" d="M1070.26 -510.657C1077.61 -507.456 1082.06 -499.888 1081.29 -491.91L1017.64 164.329C1016.87 172.307 1011.04 178.878 1003.22 180.608L359.427 322.864C351.602 324.593 343.552 321.087 339.489 314.178L5.25359 -254.143C1.19062 -261.051 2.03823 -269.79 7.3531 -275.789L444.574 -769.287C449.889 -775.286 458.462 -777.18 465.81 -773.979L1070.26 -510.657Z" stroke="url(#paint44_radial_907_12245)" stroke-width="3"/>
<path opacity="0.464646" d="M1075.09 -508.791C1082.38 -505.463 1086.7 -497.818 1085.78 -489.855L1010.85 163.817C1009.94 171.779 1004 178.249 996.144 179.841L351.308 310.569C343.454 312.161 335.467 308.514 331.525 301.536L7.93042 -271.342C3.98864 -278.321 4.98864 -287.043 10.4074 -292.949L455.251 -777.734C460.669 -783.64 469.274 -785.384 476.565 -782.055L1075.09 -508.791Z" stroke="url(#paint45_radial_907_12245)" stroke-width="3"/>
<path opacity="0.474747" d="M1079.74 -506.875C1086.98 -503.419 1091.16 -495.7 1090.11 -487.755L1003.95 163.156C1002.9 171.102 996.854 177.466 988.973 178.921L343.297 298.127C335.416 299.582 327.493 295.797 323.674 288.751L10.7779 -288.487C6.95853 -295.533 8.1106 -304.237 13.6316 -310.047L465.927 -786.005C471.448 -791.815 480.082 -793.409 487.314 -789.954L1079.74 -506.875Z" stroke="url(#paint46_radial_907_12245)" stroke-width="3"/>
<path opacity="0.484848" d="M1084.23 -504.905C1091.4 -501.324 1095.45 -493.533 1094.26 -485.608L996.959 162.35C995.769 170.276 989.61 176.534 981.705 177.851L335.394 285.545C327.488 286.863 319.633 282.94 315.937 275.828L13.793 -305.571C10.0971 -312.682 11.401 -321.365 17.0225 -327.078L476.598 -794.096C482.219 -799.809 490.88 -801.252 498.05 -797.671L1084.23 -504.905Z" stroke="url(#paint47_radial_907_12245)" stroke-width="3"/>
<path opacity="0.494949" d="M1088.54 -502.888C1095.65 -499.182 1099.56 -491.322 1098.23 -483.418L989.867 161.396C988.538 169.299 982.272 175.449 974.344 176.628L327.603 272.826C319.676 274.005 311.891 269.945 308.32 262.77L16.9767 -322.59C13.4055 -329.765 14.8607 -338.424 20.5811 -344.038L487.262 -802.008C492.982 -807.621 501.667 -808.913 508.773 -805.207L1088.54 -502.888Z" stroke="url(#paint48_radial_907_12245)" stroke-width="3"/>
<path opacity="0.50505" d="M1092.68 -500.829C1099.72 -496.999 1103.49 -489.072 1102.03 -481.193L982.675 160.289C981.209 168.168 974.836 174.208 966.889 175.248L319.922 259.966C311.976 261.007 304.263 256.812 300.817 249.576L20.3216 -339.547C16.8762 -346.783 18.4822 -355.415 24.2997 -360.928L497.911 -809.744C503.728 -815.257 512.434 -816.397 519.475 -812.568L1092.68 -500.829Z" stroke="url(#paint49_radial_907_12245)" stroke-width="3"/>
<path opacity="0.515152" d="M1096.64 -498.728C1103.62 -494.776 1107.25 -486.784 1105.65 -478.931L975.394 159.031C973.79 166.884 967.313 172.811 959.349 173.713L312.359 246.973C304.396 247.875 296.757 243.546 293.438 236.251L23.8327 -356.434C20.5141 -363.73 22.2706 -372.332 28.1834 -377.743L508.548 -817.303C514.46 -822.713 523.185 -823.701 530.157 -819.75L1096.64 -498.728Z" stroke="url(#paint50_radial_907_12245)" stroke-width="3"/>
<path opacity="0.525253" d="M1100.44 -496.589C1107.34 -492.516 1110.84 -484.462 1109.1 -476.639L968.023 157.62C966.283 165.444 959.703 171.257 951.724 172.02L304.914 233.847C296.936 234.61 289.374 230.149 286.183 222.796L27.506 -373.251C24.3153 -380.603 26.2216 -389.174 32.2279 -394.48L519.167 -824.685C525.173 -829.992 533.913 -830.827 540.816 -826.755L1100.44 -496.589Z" stroke="url(#paint51_radial_907_12245)" stroke-width="3"/>
<path opacity="0.535354" d="M1104.06 -494.415C1110.89 -490.223 1114.24 -482.109 1112.37 -474.317L960.565 156.055C958.688 163.847 952.008 169.545 944.018 170.168L297.589 220.592C289.598 221.215 282.115 216.622 279.053 209.216L31.3398 -389.993C28.2779 -397.4 30.3335 -405.936 36.4315 -411.137L529.765 -831.892C535.863 -837.093 544.617 -837.775 551.447 -833.583L1104.06 -494.415Z" stroke="url(#paint52_radial_907_12245)" stroke-width="3"/>
<path opacity="0.545455" d="M1107.5 -492.21C1114.26 -487.899 1117.47 -479.728 1115.46 -471.97L953.023 154.335C951.011 162.093 944.233 167.673 936.233 168.157L290.385 207.209C282.385 207.692 274.984 202.97 272.051 195.511L35.3329 -406.659C32.4007 -414.118 34.605 -422.617 40.7928 -427.71L540.34 -838.923C546.528 -844.017 555.292 -844.547 562.048 -840.236L1107.5 -492.21Z" stroke="url(#paint53_radial_907_12245)" stroke-width="3"/>
<path opacity="0.555556" d="M1110.78 -489.976C1117.46 -485.548 1120.53 -477.322 1118.38 -469.6L945.402 152.459C943.255 160.18 936.38 165.641 928.372 165.985L283.307 193.701C275.299 194.045 267.981 189.194 265.18 181.685L39.4841 -423.244C36.6825 -430.754 39.0347 -439.213 45.3105 -444.198L550.889 -845.78C557.165 -850.765 565.936 -851.142 572.617 -846.714L1110.78 -489.976Z" stroke="url(#paint54_radial_907_12245)" stroke-width="3"/>
<path opacity="0.565657" d="M1113.87 -487.717C1120.48 -483.173 1123.4 -474.894 1121.12 -467.211L937.701 150.425C935.42 158.108 928.45 163.448 920.438 163.652L276.352 180.071C268.34 180.275 261.108 175.297 258.438 167.74L43.7892 -439.748C41.1191 -447.305 43.6186 -455.722 49.9804 -460.596L561.406 -852.464C567.768 -857.338 576.545 -857.562 583.147 -853.018L1113.87 -487.717Z" stroke="url(#paint55_radial_907_12245)" stroke-width="3"/>
<path opacity="0.575758" d="M1116.8 -485.436C1123.32 -480.777 1126.1 -472.449 1123.69 -464.807L929.928 148.231C927.512 155.873 920.451 161.091 912.436 161.155L269.528 166.32C261.513 166.384 254.369 161.281 251.831 153.679L48.2497 -456.168C45.7119 -463.77 48.3579 -472.142 54.8038 -476.905L571.892 -858.975C578.338 -863.738 587.118 -863.809 593.639 -859.15L1116.8 -485.436Z" stroke="url(#paint56_radial_907_12245)" stroke-width="3"/>
<path opacity="0.585859" d="M1119.55 -483.138C1125.99 -478.366 1128.62 -469.99 1126.07 -462.392L922.081 145.877C919.532 153.476 912.381 158.569 904.366 158.494L262.832 152.45C254.817 152.374 247.763 147.147 245.358 139.502L52.8609 -472.502C50.4562 -480.147 53.2479 -488.472 59.776 -493.121L582.341 -865.317C588.869 -869.966 597.649 -869.884 604.088 -865.112L1119.55 -483.138Z" stroke="url(#paint57_radial_907_12245)" stroke-width="3"/>
<path opacity="0.59596" d="M1122.13 -480.821C1128.48 -475.938 1130.97 -467.518 1128.29 -459.965L914.166 143.364C911.486 150.917 904.246 155.885 896.235 155.669L256.268 138.467C248.256 138.252 241.295 132.902 239.024 125.216L57.6236 -488.744C55.3526 -496.431 58.2892 -504.705 64.8974 -509.24L592.752 -871.486C599.361 -876.021 608.138 -875.785 614.493 -870.901L1122.13 -480.821Z" stroke="url(#paint58_radial_907_12245)" stroke-width="3"/>
<path opacity="0.606061" d="M1124.53 -478.493C1130.8 -473.5 1133.14 -465.037 1130.32 -457.532L906.185 140.688C903.373 148.194 896.048 153.034 888.041 152.679L249.837 124.371C241.83 124.016 234.963 118.545 232.826 110.821L62.5329 -504.895C60.3965 -512.62 63.477 -520.842 70.1633 -525.261L603.121 -877.486C609.807 -881.905 618.578 -881.516 624.847 -876.522L1124.53 -478.493Z" stroke="url(#paint59_radial_907_12245)" stroke-width="3"/>
<path opacity="0.616162" d="M1126.75 -476.157C1132.94 -471.055 1135.13 -462.553 1132.19 -455.098L898.142 137.849C895.199 145.304 887.791 150.017 879.792 149.522L243.542 110.164C235.543 109.669 228.772 104.08 226.77 96.3191L67.5897 -520.953C65.5883 -528.713 68.8119 -536.88 75.5744 -541.182L613.445 -883.319C620.208 -887.621 628.971 -887.078 635.152 -881.976L1126.75 -476.157Z" stroke="url(#paint60_radial_907_12245)" stroke-width="3"/>
<path opacity="0.626263" d="M1128.81 -473.814C1134.9 -468.604 1136.94 -460.065 1133.87 -452.663L890.038 134.848C886.965 142.25 879.476 146.833 871.486 146.198L237.382 95.8505C229.392 95.2162 222.72 89.5093 220.854 81.7148L72.789 -536.913C70.9234 -544.707 74.289 -552.816 81.1255 -556.999L623.72 -888.984C630.557 -893.167 639.309 -892.472 645.4 -887.263L1128.81 -473.814Z" stroke="url(#paint61_radial_907_12245)" stroke-width="3"/>
<path opacity="0.636364" d="M1130.69 -471.467C1136.69 -466.152 1138.58 -457.579 1135.38 -450.231L881.876 131.682C878.676 139.03 871.107 143.481 863.13 142.707L231.36 81.4323C223.383 80.6586 216.811 74.8362 215.082 67.0103L78.1305 -552.773C76.4012 -560.599 79.9079 -568.649 86.8163 -572.712L633.945 -894.484C640.854 -898.547 649.593 -897.699 655.592 -892.385L1130.69 -471.467Z" stroke="url(#paint62_radial_907_12245)" stroke-width="3"/>
<path opacity="0.646465" d="M1132.4 -469.119C1138.3 -463.7 1140.05 -455.095 1136.72 -447.805L873.664 128.354C870.335 135.645 862.69 139.963 854.728 139.05L225.481 66.914C217.518 66.0012 211.049 60.065 209.457 52.2101L83.6139 -568.531C82.0215 -576.386 85.668 -584.373 92.6464 -588.314L644.118 -899.817C651.097 -903.759 659.82 -902.759 665.725 -897.34L1132.4 -469.119Z" stroke="url(#paint63_radial_907_12245)" stroke-width="3"/>
<path opacity="0.656566" d="M1133.93 -466.775C1139.74 -461.254 1141.33 -452.62 1137.88 -445.388L865.399 124.859C861.944 132.091 854.225 136.275 846.279 135.223L219.741 52.2958C211.795 51.2441 205.431 45.1959 203.976 37.3144L89.2337 -584.185C87.7786 -592.067 91.564 -599.989 98.61 -603.808L654.234 -904.988C661.28 -908.808 669.984 -907.655 675.794 -902.134L1133.93 -466.775Z" stroke="url(#paint64_radial_907_12245)" stroke-width="3"/>
<path opacity="0.666667" d="M1135.29 -464.437C1141.01 -458.816 1142.45 -450.155 1138.87 -442.985L857.089 121.198C853.508 128.368 845.717 132.417 837.792 131.227L214.147 37.5801C206.221 36.39 199.963 30.2316 198.645 22.326L94.9918 -599.734C93.6745 -607.64 97.5976 -615.495 104.709 -619.19L664.293 -909.998C671.404 -913.694 680.087 -912.39 685.8 -906.768L1135.29 -464.437Z" stroke="url(#paint65_radial_907_12245)" stroke-width="3"/>
<path opacity="0.676768" d="M1136.49 -462.108C1142.1 -456.388 1143.39 -447.704 1139.69 -440.597L848.733 117.371C845.028 124.478 837.167 128.39 829.263 127.062L208.695 22.7716C200.791 21.4433 194.641 15.1766 193.462 7.24921L100.882 -615.174C99.7026 -623.102 103.762 -630.887 110.937 -634.458L674.288 -914.846C681.463 -918.418 690.122 -916.962 695.735 -911.242L1136.49 -462.108Z" stroke="url(#paint66_radial_907_12245)" stroke-width="3"/>
<path opacity="0.686869" d="M1137.51 -459.791C1143.02 -453.974 1144.16 -445.268 1140.33 -438.227L840.336 113.378C836.507 120.419 828.58 124.194 820.7 122.728L203.389 7.87266C195.509 6.40663 189.47 0.0336024 188.429 -7.9132L106.903 -630.503C105.863 -638.45 110.058 -646.163 117.294 -649.608L684.219 -919.535C691.456 -922.981 700.087 -921.375 705.6 -915.557L1137.51 -459.791Z" stroke="url(#paint67_radial_907_12245)" stroke-width="3"/>
<path opacity="0.69697" d="M1138.36 -457.489C1143.77 -451.576 1144.75 -442.852 1140.8 -435.879L831.901 109.219C827.95 116.192 819.958 119.827 812.105 118.224L198.231 -7.1139C190.378 -8.71723 184.451 -15.1947 183.549 -23.1584L113.055 -645.719C112.153 -653.683 116.482 -661.322 123.777 -664.64L694.084 -924.066C701.379 -927.385 709.982 -925.628 715.392 -919.716L1138.36 -457.489Z" stroke="url(#paint68_radial_907_12245)" stroke-width="3"/>
<path opacity="0.707071" d="M1139.03 -455.207C1144.34 -449.2 1145.18 -440.46 1141.1 -433.557L823.43 104.89C819.357 111.793 811.303 115.288 803.48 113.548L193.219 -22.1874C185.396 -23.9276 179.582 -30.5075 178.82 -38.4857L119.331 -660.822C118.569 -668.801 123.03 -676.363 130.382 -679.554L703.877 -928.443C711.229 -931.634 719.8 -929.728 725.106 -923.721L1139.03 -455.207Z" stroke="url(#paint69_radial_907_12245)" stroke-width="3"/>
<path opacity="0.717172" d="M1139.54 -452.944C1144.75 -446.846 1145.43 -438.092 1141.24 -431.261L814.928 100.396C810.736 107.227 802.622 110.581 794.83 108.704L188.359 -37.3413C180.567 -39.2177 174.87 -45.8981 174.247 -53.8885L125.735 -675.807C125.111 -683.797 129.704 -691.28 137.111 -694.342L713.599 -932.663C721.006 -935.725 729.542 -933.67 734.743 -927.572L1139.54 -452.944Z" stroke="url(#paint70_radial_907_12245)" stroke-width="3"/>
<path opacity="0.727273" d="M1139.88 -450.707C1144.98 -444.519 1145.51 -435.755 1141.2 -428.998L806.396 95.7316C802.085 102.488 793.913 105.7 786.155 103.688L183.648 -52.5768C175.89 -54.5889 170.31 -61.3677 169.826 -69.3677L132.258 -690.675C131.775 -698.675 136.497 -706.076 143.956 -709.009L723.245 -936.733C730.704 -939.665 739.203 -937.46 744.297 -931.273L1139.88 -450.707Z" stroke="url(#paint71_radial_907_12245)" stroke-width="3"/>
<path opacity="0.737374" d="M1140.06 -448.495C1145.04 -442.219 1145.42 -433.447 1140.99 -426.767L797.838 90.9014C793.41 97.5817 785.184 100.651 777.462 98.5036L179.089 -67.8869C171.368 -70.0341 165.907 -76.9093 165.563 -84.9165L138.902 -705.42C138.558 -713.427 143.409 -720.745 150.918 -723.547L732.814 -940.649C740.323 -943.45 748.782 -941.098 753.767 -934.822L1140.06 -448.495Z" stroke="url(#paint72_radial_907_12245)" stroke-width="3"/>
<path opacity="0.747475" d="M1140.06 -446.316C1144.94 -439.954 1145.16 -431.176 1140.62 -424.575L789.256 85.901C784.712 92.5031 776.433 95.4281 768.75 93.1465L174.682 -83.2728C166.999 -85.5545 161.659 -92.5238 161.455 -100.536L145.663 -720.045C145.458 -728.057 150.436 -735.289 157.993 -737.959L742.301 -944.417C749.858 -947.088 758.275 -944.588 763.149 -938.226L1140.06 -446.316Z" stroke="url(#paint73_radial_907_12245)" stroke-width="3"/>
<path opacity="0.757576" d="M1139.91 -444.167C1144.67 -437.721 1144.74 -428.941 1140.08 -422.42L780.657 80.7346C775.999 87.2562 767.67 90.0364 760.028 87.621L170.432 -98.7278C162.79 -101.143 157.572 -108.205 157.508 -116.219L152.541 -734.543C152.477 -742.558 157.58 -749.702 165.182 -752.24L751.709 -948.036C759.311 -950.574 767.683 -947.928 772.446 -941.482L1139.91 -444.167Z" stroke="url(#paint74_radial_907_12245)" stroke-width="3"/>
<path opacity="0.767677" d="M1139.58 -442.056C1144.23 -435.528 1144.15 -426.749 1139.38 -420.309L772.039 75.3983C767.268 81.8377 758.892 84.472 751.293 81.9237L166.334 -114.252C158.735 -116.801 153.642 -123.952 153.717 -131.967L159.529 -748.918C159.605 -756.932 164.832 -763.986 172.478 -766.391L761.029 -951.512C768.674 -953.916 776.999 -951.125 781.648 -944.597L1139.58 -442.056Z" stroke="url(#paint75_radial_907_12245)" stroke-width="3"/>
<path opacity="0.777778" d="M1139.09 -439.984C1143.63 -433.376 1143.39 -424.599 1138.51 -418.244L763.406 69.8939C758.523 76.2491 750.103 78.7369 742.55 76.0563L162.39 -129.842C154.837 -132.523 149.869 -139.762 150.085 -147.774L166.626 -763.164C166.842 -771.176 172.192 -778.138 179.878 -780.409L770.26 -954.842C777.947 -957.113 786.221 -954.177 790.756 -947.569L1139.09 -439.984Z" stroke="url(#paint76_radial_907_12245)" stroke-width="3"/>
<path opacity="0.787879" d="M1138.44 -437.954C1142.86 -431.267 1142.47 -422.496 1137.47 -416.227L754.763 64.2219C749.769 70.4909 741.307 72.8313 733.802 70.0193L158.603 -145.494C151.098 -148.306 146.257 -155.63 146.612 -163.637L173.831 -777.281C174.186 -785.287 179.657 -792.155 187.381 -794.291L779.402 -958.031C787.127 -960.168 795.348 -957.087 799.767 -950.401L1138.44 -437.954Z" stroke="url(#paint77_radial_907_12245)" stroke-width="3"/>
<path opacity="0.79798" d="M1137.63 -435.965C1141.93 -429.203 1141.38 -420.44 1136.28 -414.259L746.114 58.3844C741.012 64.5653 732.51 66.7577 725.055 63.8151L154.976 -161.202C147.521 -164.144 142.809 -171.553 143.304 -179.552L181.144 -791.264C181.638 -799.263 187.228 -806.034 194.989 -808.036L788.454 -961.077C796.215 -963.078 804.382 -959.855 808.683 -953.092L1137.63 -435.965Z" stroke="url(#paint78_radial_907_12245)" stroke-width="3"/>
<path opacity="0.808081" d="M1136.65 -434.026C1140.83 -427.189 1140.14 -418.437 1134.93 -412.346L737.458 52.378C732.249 58.4689 723.71 60.5126 716.308 57.4403L151.504 -176.968C144.102 -180.04 139.519 -187.53 140.154 -195.519L188.555 -805.116C189.19 -813.105 194.897 -819.778 202.691 -821.643L797.409 -963.986C805.203 -965.852 813.313 -962.486 817.496 -955.65L1136.65 -434.026Z" stroke="url(#paint79_radial_907_12245)" stroke-width="3"/>
<path opacity="0.818182" d="M1135.52 -432.137C1139.58 -425.229 1138.73 -416.49 1133.42 -410.491L728.804 46.2033C723.489 52.2024 714.915 54.0967 707.568 50.8958L148.193 -192.789C140.845 -195.99 136.394 -203.558 137.168 -211.535L196.07 -818.835C196.843 -826.812 202.666 -833.384 210.492 -835.113L806.27 -966.76C814.095 -968.49 822.145 -964.983 826.208 -958.074L1135.52 -432.137Z" stroke="url(#paint80_radial_907_12245)" stroke-width="3"/>
<path opacity="0.828283" d="M1134.22 -430.301C1138.17 -423.322 1137.17 -414.6 1131.75 -408.694L720.148 39.8625C714.729 45.7678 706.124 47.5122 698.834 44.1835L145.04 -208.659C137.749 -211.988 133.431 -219.633 134.343 -227.595L203.679 -832.417C204.592 -840.38 210.528 -846.849 218.383 -848.441L815.029 -969.399C822.884 -970.992 830.871 -967.345 834.813 -960.367L1134.22 -430.301Z" stroke="url(#paint81_radial_907_12245)" stroke-width="3"/>
<path opacity="0.838384" d="M1132.78 -428.519C1136.6 -421.473 1135.44 -412.768 1129.92 -406.959L711.498 33.3561C705.977 39.166 697.343 40.76 690.112 37.3046L142.047 -224.576C134.816 -228.031 130.631 -235.75 131.683 -243.695L211.385 -845.861C212.436 -853.807 218.485 -860.171 226.366 -861.626L823.689 -971.905C831.57 -973.36 839.492 -969.575 843.312 -962.529L1132.78 -428.519Z" stroke="url(#paint82_radial_907_12245)" stroke-width="3"/>
<path opacity="0.848485" d="M1131.17 -426.795C1134.87 -419.684 1133.56 -411.001 1127.94 -405.288L702.853 26.6833C697.232 32.396 688.571 33.839 681.401 30.2579L139.212 -240.537C132.042 -244.118 127.993 -251.909 129.184 -259.835L219.18 -859.167C220.37 -867.093 226.528 -873.351 234.434 -874.669L832.243 -974.281C840.149 -975.599 848.004 -971.675 851.699 -964.564L1131.17 -426.795Z" stroke="url(#paint83_radial_907_12245)" stroke-width="3"/>
<path opacity="0.858586" d="M1129.41 -425.133C1132.98 -417.958 1131.53 -409.3 1125.81 -403.686L694.221 19.8445C688.501 25.4582 679.816 26.7499 672.71 23.0442L136.541 -256.541C129.434 -260.246 125.522 -268.107 126.85 -276.01L227.066 -872.334C228.394 -880.238 234.661 -886.387 242.588 -887.567L840.694 -976.53C848.622 -977.709 856.407 -973.65 859.978 -966.474L1129.41 -425.133Z" stroke="url(#paint84_radial_907_12245)" stroke-width="3"/>
<path opacity="0.868687" d="M1127.5 -423.535C1130.95 -416.298 1129.34 -407.666 1123.52 -402.154L685.601 12.8408C679.784 18.3538 671.078 19.4937 664.037 15.6646L134.029 -272.583C126.988 -276.412 123.214 -284.339 124.68 -292.219L235.038 -885.36C236.504 -893.239 242.877 -899.278 250.824 -900.319L849.037 -978.653C856.984 -979.694 864.697 -975.499 868.142 -968.263L1127.5 -423.535Z" stroke="url(#paint85_radial_907_12245)" stroke-width="3"/>
<path opacity="0.878788" d="M1125.44 -422.002C1128.75 -414.707 1127 -406.104 1121.09 -400.694L676.996 5.6727C671.083 11.0834 662.359 12.0712 655.386 8.11972L131.677 -288.66C124.704 -292.612 121.069 -300.604 122.672 -308.456L243.092 -898.243C244.695 -906.095 251.173 -912.022 259.136 -912.924L857.268 -980.652C865.232 -981.554 872.871 -977.225 876.189 -969.93L1125.44 -422.002Z" stroke="url(#paint86_radial_907_12245)" stroke-width="3"/>
<path opacity="0.888889" d="M1123.22 -420.538C1126.41 -413.185 1124.51 -404.615 1118.5 -399.308L668.411 -1.65862C662.405 3.64801 653.664 4.48345 646.762 0.410884L129.489 -304.77C122.586 -308.842 119.09 -316.896 120.831 -324.72L251.228 -910.982C252.969 -918.805 259.548 -924.618 267.527 -925.381L865.39 -982.53C873.368 -983.293 880.93 -978.831 884.121 -971.479L1123.22 -420.538Z" stroke="url(#paint87_radial_907_12245)" stroke-width="3"/>
<path opacity="0.89899" d="M1120.86 -419.145C1123.92 -411.739 1121.87 -403.203 1115.77 -398.002L659.848 -9.15401C653.75 -3.95313 644.996 -3.27036 638.166 -7.46277L127.462 -320.91C120.631 -325.102 117.277 -333.217 119.153 -341.008L259.443 -923.577C261.319 -931.369 268 -937.067 275.99 -937.69L873.398 -984.29C881.388 -984.913 888.871 -980.32 891.933 -972.914L1120.86 -419.145Z" stroke="url(#paint88_radial_907_12245)" stroke-width="3"/>
<path opacity="0.909091" d="M1118.35 -417.826C1121.28 -410.367 1119.08 -401.868 1112.89 -396.774L651.307 -16.8108C645.119 -11.717 636.355 -11.1872 629.598 -15.4981L125.594 -337.076C118.837 -341.387 115.625 -349.558 117.637 -357.316L267.73 -936.026C269.742 -943.784 276.521 -949.364 284.521 -949.848L881.288 -985.932C889.288 -986.416 896.69 -981.693 899.622 -974.234L1118.35 -417.826Z" stroke="url(#paint89_radial_907_12245)" stroke-width="3"/>
<path opacity="0.919192" d="M1115.7 -416.583C1118.5 -409.074 1116.15 -400.615 1109.87 -395.63L642.797 -24.6295C636.521 -19.6446 627.75 -19.2677 621.069 -23.696L123.893 -353.266C117.212 -357.695 114.143 -365.921 116.29 -373.642L276.094 -948.329C278.242 -956.05 285.117 -961.511 293.124 -961.855L889.065 -987.46C897.072 -987.804 904.391 -982.953 907.192 -975.444L1115.7 -416.583Z" stroke="url(#paint90_radial_907_12245)" stroke-width="3"/>
<path opacity="0.929293" d="M1112.9 -415.417C1115.57 -407.86 1113.07 -399.444 1106.71 -394.569L634.316 -32.6075C627.955 -27.7328 619.177 -27.5091 612.575 -32.0532L122.351 -369.476C115.749 -374.02 112.824 -382.299 115.106 -389.982L284.526 -960.482C286.808 -968.165 293.777 -973.505 301.789 -973.709L896.721 -988.875C904.733 -989.079 911.966 -984.101 914.636 -976.544L1112.9 -415.417Z" stroke="url(#paint91_radial_907_12245)" stroke-width="3"/>
<path opacity="0.939394" d="M1109.96 -414.334C1112.5 -406.732 1109.86 -398.36 1103.41 -393.597L625.868 -40.7467C619.422 -35.9839 610.642 -35.9134 604.121 -40.5721L120.971 -385.705C114.45 -390.364 111.67 -398.692 114.085 -406.334L293.025 -972.488C295.44 -980.13 302.502 -985.348 310.516 -985.412L904.256 -990.182C912.27 -990.246 919.415 -985.143 921.953 -977.54L1109.96 -414.334Z" stroke="url(#paint92_radial_907_12245)" stroke-width="3"/>
<path opacity="0.949495" d="M1106.88 -413.334C1109.29 -405.688 1106.5 -397.364 1099.97 -392.714L617.454 -49.0444C610.926 -44.3948 602.146 -44.4776 595.707 -49.2494L119.752 -401.949C113.313 -406.72 110.678 -415.096 113.227 -422.695L301.586 -984.345C304.134 -991.943 311.286 -997.037 319.3 -996.962L911.667 -991.381C919.681 -991.306 926.735 -986.078 929.14 -978.433L1106.88 -413.334Z" stroke="url(#paint93_radial_907_12245)" stroke-width="3"/>
<path opacity="0.959596" d="M1103.67 -412.418C1105.94 -404.732 1103 -396.458 1096.4 -391.923L609.082 -57.4992C602.474 -52.9642 593.697 -53.2001 587.342 -58.0835L118.698 -418.204C112.343 -423.087 109.855 -431.507 112.536 -439.06L310.211 -996.05C312.892 -1003.6 320.131 -1008.57 328.143 -1008.36L918.957 -992.475C926.969 -992.26 933.931 -986.91 936.202 -979.224L1103.67 -412.418Z" stroke="url(#paint94_radial_907_12245)" stroke-width="3"/>
<path opacity="0.969697" d="M1100.32 -411.592C1102.45 -403.867 1099.37 -395.645 1092.69 -391.226L600.75 -66.1115C594.063 -61.6927 585.292 -62.0816 579.023 -67.0753L117.804 -434.468C111.535 -439.462 109.194 -447.924 112.006 -455.429L318.893 -1007.61C321.705 -1015.11 329.03 -1019.95 337.037 -1019.6L926.12 -993.467C934.126 -993.112 940.994 -987.642 943.13 -979.917L1100.32 -411.592Z" stroke="url(#paint95_radial_907_12245)" stroke-width="3"/>
<path opacity="0.979798" d="M1096.83 -410.854C1098.83 -403.093 1095.61 -394.927 1088.85 -390.625L592.464 -74.8781C585.702 -70.5766 576.939 -71.1186 570.758 -76.2209L117.074 -450.738C110.893 -455.84 108.701 -464.342 111.644 -471.797L327.634 -1019.01C330.577 -1026.46 337.985 -1031.18 345.985 -1030.68L933.158 -994.359C941.157 -993.864 947.928 -988.274 949.93 -980.513L1096.83 -410.854Z" stroke="url(#paint96_radial_907_12245)" stroke-width="3"/>
<path opacity="0.989899" d="M1093.21 -410.209C1095.08 -402.415 1091.71 -394.305 1084.88 -390.122L584.223 -83.7995C577.387 -79.6166 568.634 -80.3115 562.543 -85.5209L116.503 -467.011C110.412 -472.22 108.368 -480.759 111.44 -488.162L336.425 -1030.26C339.497 -1037.66 346.987 -1042.24 354.976 -1041.61L940.065 -995.153C948.054 -994.518 954.727 -988.812 956.592 -981.017L1093.21 -410.209Z" stroke="url(#paint97_radial_907_12245)" stroke-width="3"/>
<path d="M1089.46 -409.659C1091.19 -401.833 1087.69 -393.783 1080.78 -389.72L576.032 -92.8741C569.123 -88.8112 560.384 -89.6588 554.385 -94.9737L116.093 -483.284C110.094 -488.599 108.2 -497.172 111.401 -504.52L345.266 -1041.36C348.467 -1048.7 356.035 -1053.15 364.013 -1052.38L946.842 -995.852C954.819 -995.079 961.391 -989.256 963.12 -981.43L1089.46 -409.659Z" stroke="url(#paint98_radial_907_12245)" stroke-width="3"/>
</g>
</g>
<defs>
<radialGradient id="paint0_radial_907_12245" cx="0" cy="0" r="1" gradientUnits="userSpaceOnUse" gradientTransform="translate(550.665 112.659) rotate(105.54) scale(636.693)">
<stop stop-color="#23AEE3"/>
<stop offset="0.192708" stop-color="#867CDA"/>
<stop offset="0.432292" stop-color="#9B71D8"/>
<stop offset="0.723958" stop-color="#FD3DCE"/>
<stop offset="1" stop-color="#23AEE3"/>
</radialGradient>
<radialGradient id="paint1_radial_907_12245" cx="0" cy="0" r="1" gradientUnits="userSpaceOnUse" gradientTransform="translate(551.32 105.342) rotate(106.54) scale(635.531)">
<stop stop-color="#23AEE3"/>
<stop offset="0.192708" stop-color="#867CDA"/>
<stop offset="0.432292" stop-color="#9B71D8"/>
<stop offset="0.723958" stop-color="#FD3DCE"/>
<stop offset="1" stop-color="#23AEE3"/>
</radialGradient>
<radialGradient id="paint2_radial_907_12245" cx="0" cy="0" r="1" gradientUnits="userSpaceOnUse" gradientTransform="translate(551.974 98.0216) rotate(107.54) scale(634.37)">
<stop stop-color="#23AEE3"/>
<stop offset="0.192708" stop-color="#867CDA"/>
<stop offset="0.432292" stop-color="#9B71D8"/>
<stop offset="0.723958" stop-color="#FD3DCE"/>
<stop offset="1" stop-color="#23AEE3"/>
</radialGradient>
<radialGradient id="paint3_radial_907_12245" cx="0" cy="0" r="1" gradientUnits="userSpaceOnUse" gradientTransform="translate(552.626 90.7021) rotate(108.54) scale(633.208)">
<stop stop-color="#23AEE3"/>
<stop offset="0.192708" stop-color="#867CDA"/>
<stop offset="0.432292" stop-color="#9B71D8"/>
<stop offset="0.723958" stop-color="#FD3DCE"/>
<stop offset="1" stop-color="#23AEE3"/>
</radialGradient>
<radialGradient id="paint4_radial_907_12245" cx="0" cy="0" r="1" gradientUnits="userSpaceOnUse" gradientTransform="translate(553.279 83.3823) rotate(109.54) scale(632.046)">
<stop stop-color="#23AEE3"/>
<stop offset="0.192708" stop-color="#867CDA"/>
<stop offset="0.432292" stop-color="#9B71D8"/>
<stop offset="0.723958" stop-color="#FD3DCE"/>
<stop offset="1" stop-color="#23AEE3"/>
</radialGradient>
<radialGradient id="paint5_radial_907_12245" cx="0" cy="0" r="1" gradientUnits="userSpaceOnUse" gradientTransform="translate(553.934 76.0637) rotate(110.54) scale(630.884)">
<stop stop-color="#23AEE3"/>
<stop offset="0.192708" stop-color="#867CDA"/>
<stop offset="0.432292" stop-color="#9B71D8"/>
<stop offset="0.723958" stop-color="#FD3DCE"/>
<stop offset="1" stop-color="#23AEE3"/>
</radialGradient>
<radialGradient id="paint6_radial_907_12245" cx="0" cy="0" r="1" gradientUnits="userSpaceOnUse" gradientTransform="translate(554.589 68.7453) rotate(111.54) scale(629.722)">
<stop stop-color="#23AEE3"/>
<stop offset="0.192708" stop-color="#867CDA"/>
<stop offset="0.432292" stop-color="#9B71D8"/>
<stop offset="0.723958" stop-color="#FD3DCE"/>
<stop offset="1" stop-color="#23AEE3"/>
</radialGradient>
<radialGradient id="paint7_radial_907_12245" cx="0" cy="0" r="1" gradientUnits="userSpaceOnUse" gradientTransform="translate(555.241 61.4268) rotate(112.54) scale(628.56)">
<stop stop-color="#23AEE3"/>
<stop offset="0.192708" stop-color="#867CDA"/>
<stop offset="0.432292" stop-color="#9B71D8"/>
<stop offset="0.723958" stop-color="#FD3DCE"/>
<stop offset="1" stop-color="#23AEE3"/>
</radialGradient>
<radialGradient id="paint8_radial_907_12245" cx="0" cy="0" r="1" gradientUnits="userSpaceOnUse" gradientTransform="translate(555.895 54.1076) rotate(113.54) scale(627.398)">
<stop stop-color="#23AEE3"/>
<stop offset="0.192708" stop-color="#867CDA"/>
<stop offset="0.432292" stop-color="#9B71D8"/>
<stop offset="0.723958" stop-color="#FD3DCE"/>
<stop offset="1" stop-color="#23AEE3"/>
</radialGradient>
<radialGradient id="paint9_radial_907_12245" cx="0" cy="0" r="1" gradientUnits="userSpaceOnUse" gradientTransform="translate(556.551 46.7894) rotate(114.54) scale(626.237)">
<stop stop-color="#23AEE3"/>
<stop offset="0.192708" stop-color="#867CDA"/>
<stop offset="0.432292" stop-color="#9B71D8"/>
<stop offset="0.723958" stop-color="#FD3DCE"/>
<stop offset="1" stop-color="#23AEE3"/>
</radialGradient>
<radialGradient id="paint10_radial_907_12245" cx="0" cy="0" r="1" gradientUnits="userSpaceOnUse" gradientTransform="translate(557.203 39.4698) rotate(115.54) scale(625.075)">
<stop stop-color="#23AEE3"/>
<stop offset="0.192708" stop-color="#867CDA"/>
<stop offset="0.432292" stop-color="#9B71D8"/>
<stop offset="0.723958" stop-color="#FD3DCE"/>
<stop offset="1" stop-color="#23AEE3"/>
</radialGradient>
<radialGradient id="paint11_radial_907_12245" cx="0" cy="0" r="1" gradientUnits="userSpaceOnUse" gradientTransform="translate(557.858 32.1506) rotate(116.54) scale(623.913)">
<stop stop-color="#23AEE3"/>
<stop offset="0.192708" stop-color="#867CDA"/>
<stop offset="0.432292" stop-color="#9B71D8"/>
<stop offset="0.723958" stop-color="#FD3DCE"/>
<stop offset="1" stop-color="#23AEE3"/>
</radialGradient>
<radialGradient id="paint12_radial_907_12245" cx="0" cy="0" r="1" gradientUnits="userSpaceOnUse" gradientTransform="translate(558.51 24.8319) rotate(117.54) scale(622.751)">
<stop stop-color="#23AEE3"/>
<stop offset="0.192708" stop-color="#867CDA"/>
<stop offset="0.432292" stop-color="#9B71D8"/>
<stop offset="0.723958" stop-color="#FD3DCE"/>
<stop offset="1" stop-color="#23AEE3"/>
</radialGradient>
<radialGradient id="paint13_radial_907_12245" cx="0" cy="0" r="1" gradientUnits="userSpaceOnUse" gradientTransform="translate(559.164 17.5114) rotate(118.54) scale(621.589)">
<stop stop-color="#23AEE3"/>
<stop offset="0.192708" stop-color="#867CDA"/>
<stop offset="0.432292" stop-color="#9B71D8"/>
<stop offset="0.723958" stop-color="#FD3DCE"/>
<stop offset="1" stop-color="#23AEE3"/>
</radialGradient>
<radialGradient id="paint14_radial_907_12245" cx="0" cy="0" r="1" gradientUnits="userSpaceOnUse" gradientTransform="translate(559.819 10.1933) rotate(119.54) scale(620.427)">
<stop stop-color="#23AEE3"/>
<stop offset="0.192708" stop-color="#867CDA"/>
<stop offset="0.432292" stop-color="#9B71D8"/>
<stop offset="0.723958" stop-color="#FD3DCE"/>
<stop offset="1" stop-color="#23AEE3"/>
</radialGradient>
<radialGradient id="paint15_radial_907_12245" cx="0" cy="0" r="1" gradientUnits="userSpaceOnUse" gradientTransform="translate(560.472 2.8738) rotate(120.54) scale(619.265)">
<stop stop-color="#23AEE3"/>
<stop offset="0.192708" stop-color="#867CDA"/>
<stop offset="0.432292" stop-color="#9B71D8"/>
<stop offset="0.723958" stop-color="#FD3DCE"/>
<stop offset="1" stop-color="#23AEE3"/>
</radialGradient>
<radialGradient id="paint16_radial_907_12245" cx="0" cy="0" r="1" gradientUnits="userSpaceOnUse" gradientTransform="translate(561.125 -4.44487) rotate(121.54) scale(618.104)">
<stop stop-color="#23AEE3"/>
<stop offset="0.192708" stop-color="#867CDA"/>
<stop offset="0.432292" stop-color="#9B71D8"/>
<stop offset="0.723958" stop-color="#FD3DCE"/>
<stop offset="1" stop-color="#23AEE3"/>
</radialGradient>
<radialGradient id="paint17_radial_907_12245" cx="0" cy="0" r="1" gradientUnits="userSpaceOnUse" gradientTransform="translate(561.779 -11.7644) rotate(122.54) scale(616.942)">
<stop stop-color="#23AEE3"/>
<stop offset="0.192708" stop-color="#867CDA"/>
<stop offset="0.432292" stop-color="#9B71D8"/>
<stop offset="0.723958" stop-color="#FD3DCE"/>
<stop offset="1" stop-color="#23AEE3"/>
</radialGradient>
<radialGradient id="paint18_radial_907_12245" cx="0" cy="0" r="1" gradientUnits="userSpaceOnUse" gradientTransform="translate(562.432 -19.0844) rotate(123.54) scale(615.78)">
<stop stop-color="#23AEE3"/>
<stop offset="0.192708" stop-color="#867CDA"/>
<stop offset="0.432292" stop-color="#9B71D8"/>
<stop offset="0.723958" stop-color="#FD3DCE"/>
<stop offset="1" stop-color="#23AEE3"/>
</radialGradient>
<radialGradient id="paint19_radial_907_12245" cx="0" cy="0" r="1" gradientUnits="userSpaceOnUse" gradientTransform="translate(563.088 -26.4022) rotate(124.54) scale(614.618)">
<stop stop-color="#23AEE3"/>
<stop offset="0.192708" stop-color="#867CDA"/>
<stop offset="0.432292" stop-color="#9B71D8"/>
<stop offset="0.723958" stop-color="#FD3DCE"/>
<stop offset="1" stop-color="#23AEE3"/>
</radialGradient>
<radialGradient id="paint20_radial_907_12245" cx="0" cy="0" r="1" gradientUnits="userSpaceOnUse" gradientTransform="translate(563.74 -33.7213) rotate(125.54) scale(613.456)">
<stop stop-color="#23AEE3"/>
<stop offset="0.192708" stop-color="#867CDA"/>
<stop offset="0.432292" stop-color="#9B71D8"/>
<stop offset="0.723958" stop-color="#FD3DCE"/>
<stop offset="1" stop-color="#23AEE3"/>
</radialGradient>
<radialGradient id="paint21_radial_907_12245" cx="0" cy="0" r="1" gradientUnits="userSpaceOnUse" gradientTransform="translate(564.395 -41.039) rotate(126.54) scale(612.294)">
<stop stop-color="#23AEE3"/>
<stop offset="0.192708" stop-color="#867CDA"/>
<stop offset="0.432292" stop-color="#9B71D8"/>
<stop offset="0.723958" stop-color="#FD3DCE"/>
<stop offset="1" stop-color="#23AEE3"/>
</radialGradient>
<radialGradient id="paint22_radial_907_12245" cx="0" cy="0" r="1" gradientUnits="userSpaceOnUse" gradientTransform="translate(565.049 -48.3585) rotate(127.54) scale(611.133)">
<stop stop-color="#23AEE3"/>
<stop offset="0.192708" stop-color="#867CDA"/>
<stop offset="0.432292" stop-color="#9B71D8"/>
<stop offset="0.723958" stop-color="#FD3DCE"/>
<stop offset="1" stop-color="#23AEE3"/>
</radialGradient>
<radialGradient id="paint23_radial_907_12245" cx="0" cy="0" r="1" gradientUnits="userSpaceOnUse" gradientTransform="translate(565.701 -55.6788) rotate(128.54) scale(609.971)">
<stop stop-color="#23AEE3"/>
<stop offset="0.192708" stop-color="#867CDA"/>
<stop offset="0.432292" stop-color="#9B71D8"/>
<stop offset="0.723958" stop-color="#FD3DCE"/>
<stop offset="1" stop-color="#23AEE3"/>
</radialGradient>
<radialGradient id="paint24_radial_907_12245" cx="0" cy="0" r="1" gradientUnits="userSpaceOnUse" gradientTransform="translate(566.356 -62.9972) rotate(129.54) scale(608.809)">
<stop stop-color="#23AEE3"/>
<stop offset="0.192708" stop-color="#867CDA"/>
<stop offset="0.432292" stop-color="#9B71D8"/>
<stop offset="0.723958" stop-color="#FD3DCE"/>
<stop offset="1" stop-color="#23AEE3"/>
</radialGradient>
<radialGradient id="paint25_radial_907_12245" cx="0" cy="0" r="1" gradientUnits="userSpaceOnUse" gradientTransform="translate(567.011 -70.3166) rotate(130.54) scale(607.647)">
<stop stop-color="#23AEE3"/>
<stop offset="0.192708" stop-color="#867CDA"/>
<stop offset="0.432292" stop-color="#9B71D8"/>
<stop offset="0.723958" stop-color="#FD3DCE"/>
<stop offset="1" stop-color="#23AEE3"/>
</radialGradient>
<radialGradient id="paint26_radial_907_12245" cx="0" cy="0" r="1" gradientUnits="userSpaceOnUse" gradientTransform="translate(567.664 -77.6357) rotate(131.54) scale(606.485)">
<stop stop-color="#23AEE3"/>
<stop offset="0.192708" stop-color="#867CDA"/>
<stop offset="0.432292" stop-color="#9B71D8"/>
<stop offset="0.723958" stop-color="#FD3DCE"/>
<stop offset="1" stop-color="#23AEE3"/>
</radialGradient>
<radialGradient id="paint27_radial_907_12245" cx="0" cy="0" r="1" gradientUnits="userSpaceOnUse" gradientTransform="translate(568.318 -84.9535) rotate(132.54) scale(605.323)">
<stop stop-color="#23AEE3"/>
<stop offset="0.192708" stop-color="#867CDA"/>
<stop offset="0.432292" stop-color="#9B71D8"/>
<stop offset="0.723958" stop-color="#FD3DCE"/>
<stop offset="1" stop-color="#23AEE3"/>
</radialGradient>
<radialGradient id="paint28_radial_907_12245" cx="0" cy="0" r="1" gradientUnits="userSpaceOnUse" gradientTransform="translate(568.97 -92.2744) rotate(133.54) scale(604.161)">
<stop stop-color="#23AEE3"/>
<stop offset="0.192708" stop-color="#867CDA"/>
<stop offset="0.432292" stop-color="#9B71D8"/>
<stop offset="0.723958" stop-color="#FD3DCE"/>
<stop offset="1" stop-color="#23AEE3"/>
</radialGradient>
<radialGradient id="paint29_radial_907_12245" cx="0" cy="0" r="1" gradientUnits="userSpaceOnUse" gradientTransform="translate(569.625 -99.5932) rotate(134.54) scale(603)">
<stop stop-color="#23AEE3"/>
<stop offset="0.192708" stop-color="#867CDA"/>
<stop offset="0.432292" stop-color="#9B71D8"/>
<stop offset="0.723958" stop-color="#FD3DCE"/>
<stop offset="1" stop-color="#23AEE3"/>
</radialGradient>
<radialGradient id="paint30_radial_907_12245" cx="0" cy="0" r="1" gradientUnits="userSpaceOnUse" gradientTransform="translate(570.278 -106.913) rotate(135.54) scale(601.838)">
<stop stop-color="#23AEE3"/>
<stop offset="0.192708" stop-color="#867CDA"/>
<stop offset="0.432292" stop-color="#9B71D8"/>
<stop offset="0.723958" stop-color="#FD3DCE"/>
<stop offset="1" stop-color="#23AEE3"/>
</radialGradient>
<radialGradient id="paint31_radial_907_12245" cx="0" cy="0" r="1" gradientUnits="userSpaceOnUse" gradientTransform="translate(570.933 -114.231) rotate(136.54) scale(600.676)">
<stop stop-color="#23AEE3"/>
<stop offset="0.192708" stop-color="#867CDA"/>
<stop offset="0.432292" stop-color="#9B71D8"/>
<stop offset="0.723958" stop-color="#FD3DCE"/>
<stop offset="1" stop-color="#23AEE3"/>
</radialGradient>
<radialGradient id="paint32_radial_907_12245" cx="0" cy="0" r="1" gradientUnits="userSpaceOnUse" gradientTransform="translate(571.586 -121.549) rotate(137.54) scale(599.514)">
<stop stop-color="#23AEE3"/>
<stop offset="0.192708" stop-color="#867CDA"/>
<stop offset="0.432292" stop-color="#9B71D8"/>
<stop offset="0.723958" stop-color="#FD3DCE"/>
<stop offset="1" stop-color="#23AEE3"/>
</radialGradient>
<radialGradient id="paint33_radial_907_12245" cx="0" cy="0" r="1" gradientUnits="userSpaceOnUse" gradientTransform="translate(572.241 -128.868) rotate(138.54) scale(598.352)">
<stop stop-color="#23AEE3"/>
<stop offset="0.192708" stop-color="#867CDA"/>
<stop offset="0.432292" stop-color="#9B71D8"/>
<stop offset="0.723958" stop-color="#FD3DCE"/>
<stop offset="1" stop-color="#23AEE3"/>
</radialGradient>
<radialGradient id="paint34_radial_907_12245" cx="0" cy="0" r="1" gradientUnits="userSpaceOnUse" gradientTransform="translate(572.894 -136.189) rotate(139.54) scale(597.19)">
<stop stop-color="#23AEE3"/>
<stop offset="0.192708" stop-color="#867CDA"/>
<stop offset="0.432292" stop-color="#9B71D8"/>
<stop offset="0.723958" stop-color="#FD3DCE"/>
<stop offset="1" stop-color="#23AEE3"/>
</radialGradient>
<radialGradient id="paint35_radial_907_12245" cx="0" cy="0" r="1" gradientUnits="userSpaceOnUse" gradientTransform="translate(573.548 -143.508) rotate(140.54) scale(596.029)">
<stop stop-color="#23AEE3"/>
<stop offset="0.192708" stop-color="#867CDA"/>
<stop offset="0.432292" stop-color="#9B71D8"/>
<stop offset="0.723958" stop-color="#FD3DCE"/>
<stop offset="1" stop-color="#23AEE3"/>
</radialGradient>
<radialGradient id="paint36_radial_907_12245" cx="0" cy="0" r="1" gradientUnits="userSpaceOnUse" gradientTransform="translate(574.201 -150.827) rotate(141.54) scale(594.867)">
<stop stop-color="#23AEE3"/>
<stop offset="0.192708" stop-color="#867CDA"/>
<stop offset="0.432292" stop-color="#9B71D8"/>
<stop offset="0.723958" stop-color="#FD3DCE"/>
<stop offset="1" stop-color="#23AEE3"/>
</radialGradient>
<radialGradient id="paint37_radial_907_12245" cx="0" cy="0" r="1" gradientUnits="userSpaceOnUse" gradientTransform="translate(574.855 -158.144) rotate(142.54) scale(593.705)">
<stop stop-color="#23AEE3"/>
<stop offset="0.192708" stop-color="#867CDA"/>
<stop offset="0.432292" stop-color="#9B71D8"/>
<stop offset="0.723958" stop-color="#FD3DCE"/>
<stop offset="1" stop-color="#23AEE3"/>
</radialGradient>
<radialGradient id="paint38_radial_907_12245" cx="0" cy="0" r="1" gradientUnits="userSpaceOnUse" gradientTransform="translate(575.509 -165.465) rotate(143.54) scale(592.543)">
<stop stop-color="#23AEE3"/>
<stop offset="0.192708" stop-color="#867CDA"/>
<stop offset="0.432292" stop-color="#9B71D8"/>
<stop offset="0.723958" stop-color="#FD3DCE"/>
<stop offset="1" stop-color="#23AEE3"/>
</radialGradient>
<radialGradient id="paint39_radial_907_12245" cx="0" cy="0" r="1" gradientUnits="userSpaceOnUse" gradientTransform="translate(576.164 -172.781) rotate(144.54) scale(591.381)">
<stop stop-color="#23AEE3"/>
<stop offset="0.192708" stop-color="#867CDA"/>
<stop offset="0.432292" stop-color="#9B71D8"/>
<stop offset="0.723958" stop-color="#FD3DCE"/>
<stop offset="1" stop-color="#23AEE3"/>
</radialGradient>
<radialGradient id="paint40_radial_907_12245" cx="0" cy="0" r="1" gradientUnits="userSpaceOnUse" gradientTransform="translate(576.818 -180.102) rotate(145.54) scale(590.219)">
<stop stop-color="#23AEE3"/>
<stop offset="0.192708" stop-color="#867CDA"/>
<stop offset="0.432292" stop-color="#9B71D8"/>
<stop offset="0.723958" stop-color="#FD3DCE"/>
<stop offset="1" stop-color="#23AEE3"/>
</radialGradient>
<radialGradient id="paint41_radial_907_12245" cx="0" cy="0" r="1" gradientUnits="userSpaceOnUse" gradientTransform="translate(577.471 -187.421) rotate(146.54) scale(589.057)">
<stop stop-color="#23AEE3"/>
<stop offset="0.192708" stop-color="#867CDA"/>
<stop offset="0.432292" stop-color="#9B71D8"/>
<stop offset="0.723958" stop-color="#FD3DCE"/>
<stop offset="1" stop-color="#23AEE3"/>
</radialGradient>
<radialGradient id="paint42_radial_907_12245" cx="0" cy="0" r="1" gradientUnits="userSpaceOnUse" gradientTransform="translate(578.126 -194.739) rotate(147.54) scale(587.896)">
<stop stop-color="#23AEE3"/>
<stop offset="0.192708" stop-color="#867CDA"/>
<stop offset="0.432292" stop-color="#9B71D8"/>
<stop offset="0.723958" stop-color="#FD3DCE"/>
<stop offset="1" stop-color="#23AEE3"/>
</radialGradient>
<radialGradient id="paint43_radial_907_12245" cx="0" cy="0" r="1" gradientUnits="userSpaceOnUse" gradientTransform="translate(578.779 -202.058) rotate(148.54) scale(586.734)">
<stop stop-color="#23AEE3"/>
<stop offset="0.192708" stop-color="#867CDA"/>
<stop offset="0.432292" stop-color="#9B71D8"/>
<stop offset="0.723958" stop-color="#FD3DCE"/>
<stop offset="1" stop-color="#23AEE3"/>
</radialGradient>
<radialGradient id="paint44_radial_907_12245" cx="0" cy="0" r="1" gradientUnits="userSpaceOnUse" gradientTransform="translate(579.431 -209.379) rotate(149.54) scale(585.572)">
<stop stop-color="#23AEE3"/>
<stop offset="0.192708" stop-color="#867CDA"/>
<stop offset="0.432292" stop-color="#9B71D8"/>
<stop offset="0.723958" stop-color="#FD3DCE"/>
<stop offset="1" stop-color="#23AEE3"/>
</radialGradient>
<radialGradient id="paint45_radial_907_12245" cx="0" cy="0" r="1" gradientUnits="userSpaceOnUse" gradientTransform="translate(580.085 -216.696) rotate(150.54) scale(584.41)">
<stop stop-color="#23AEE3"/>
<stop offset="0.192708" stop-color="#867CDA"/>
<stop offset="0.432292" stop-color="#9B71D8"/>
<stop offset="0.723958" stop-color="#FD3DCE"/>
<stop offset="1" stop-color="#23AEE3"/>
</radialGradient>
<radialGradient id="paint46_radial_907_12245" cx="0" cy="0" r="1" gradientUnits="userSpaceOnUse" gradientTransform="translate(580.74 -224.017) rotate(151.54) scale(583.248)">
<stop stop-color="#23AEE3"/>
<stop offset="0.192708" stop-color="#867CDA"/>
<stop offset="0.432292" stop-color="#9B71D8"/>
<stop offset="0.723958" stop-color="#FD3DCE"/>
<stop offset="1" stop-color="#23AEE3"/>
</radialGradient>
<radialGradient id="paint47_radial_907_12245" cx="0" cy="0" r="1" gradientUnits="userSpaceOnUse" gradientTransform="translate(581.394 -231.335) rotate(152.54) scale(582.086)">
<stop stop-color="#23AEE3"/>
<stop offset="0.192708" stop-color="#867CDA"/>
<stop offset="0.432292" stop-color="#9B71D8"/>
<stop offset="0.723958" stop-color="#FD3DCE"/>
<stop offset="1" stop-color="#23AEE3"/>
</radialGradient>
<radialGradient id="paint48_radial_907_12245" cx="0" cy="0" r="1" gradientUnits="userSpaceOnUse" gradientTransform="translate(582.05 -238.653) rotate(153.54) scale(580.924)">
<stop stop-color="#23AEE3"/>
<stop offset="0.192708" stop-color="#867CDA"/>
<stop offset="0.432292" stop-color="#9B71D8"/>
<stop offset="0.723958" stop-color="#FD3DCE"/>
<stop offset="1" stop-color="#23AEE3"/>
</radialGradient>
<radialGradient id="paint49_radial_907_12245" cx="0" cy="0" r="1" gradientUnits="userSpaceOnUse" gradientTransform="translate(582.702 -245.973) rotate(154.54) scale(579.763)">
<stop stop-color="#23AEE3"/>
<stop offset="0.192708" stop-color="#867CDA"/>
<stop offset="0.432292" stop-color="#9B71D8"/>
<stop offset="0.723958" stop-color="#FD3DCE"/>
<stop offset="1" stop-color="#23AEE3"/>
</radialGradient>
<radialGradient id="paint50_radial_907_12245" cx="0" cy="0" r="1" gradientUnits="userSpaceOnUse" gradientTransform="translate(583.356 -253.292) rotate(155.54) scale(578.601)">
<stop stop-color="#23AEE3"/>
<stop offset="0.192708" stop-color="#867CDA"/>
<stop offset="0.432292" stop-color="#9B71D8"/>
<stop offset="0.723958" stop-color="#FD3DCE"/>
<stop offset="1" stop-color="#23AEE3"/>
</radialGradient>
<radialGradient id="paint51_radial_907_12245" cx="0" cy="0" r="1" gradientUnits="userSpaceOnUse" gradientTransform="translate(584.01 -260.612) rotate(156.54) scale(577.439)">
<stop stop-color="#23AEE3"/>
<stop offset="0.192708" stop-color="#867CDA"/>
<stop offset="0.432292" stop-color="#9B71D8"/>
<stop offset="0.723958" stop-color="#FD3DCE"/>
<stop offset="1" stop-color="#23AEE3"/>
</radialGradient>
<radialGradient id="paint52_radial_907_12245" cx="0" cy="0" r="1" gradientUnits="userSpaceOnUse" gradientTransform="translate(584.663 -267.931) rotate(157.54) scale(576.277)">
<stop stop-color="#23AEE3"/>
<stop offset="0.192708" stop-color="#867CDA"/>
<stop offset="0.432292" stop-color="#9B71D8"/>
<stop offset="0.723958" stop-color="#FD3DCE"/>
<stop offset="1" stop-color="#23AEE3"/>
</radialGradient>
<radialGradient id="paint53_radial_907_12245" cx="0" cy="0" r="1" gradientUnits="userSpaceOnUse" gradientTransform="translate(585.317 -275.25) rotate(158.54) scale(575.115)">
<stop stop-color="#23AEE3"/>
<stop offset="0.192708" stop-color="#867CDA"/>
<stop offset="0.432292" stop-color="#9B71D8"/>
<stop offset="0.723958" stop-color="#FD3DCE"/>
<stop offset="1" stop-color="#23AEE3"/>
</radialGradient>
<radialGradient id="paint54_radial_907_12245" cx="0" cy="0" r="1" gradientUnits="userSpaceOnUse" gradientTransform="translate(585.972 -282.568) rotate(159.54) scale(573.953)">
<stop stop-color="#23AEE3"/>
<stop offset="0.192708" stop-color="#867CDA"/>
<stop offset="0.432292" stop-color="#9B71D8"/>
<stop offset="0.723958" stop-color="#FD3DCE"/>
<stop offset="1" stop-color="#23AEE3"/>
</radialGradient>
<radialGradient id="paint55_radial_907_12245" cx="0" cy="0" r="1" gradientUnits="userSpaceOnUse" gradientTransform="translate(586.625 -289.887) rotate(160.54) scale(572.792)">
<stop stop-color="#23AEE3"/>
<stop offset="0.192708" stop-color="#867CDA"/>
<stop offset="0.432292" stop-color="#9B71D8"/>
<stop offset="0.723958" stop-color="#FD3DCE"/>
<stop offset="1" stop-color="#23AEE3"/>
</radialGradient>
<radialGradient id="paint56_radial_907_12245" cx="0" cy="0" r="1" gradientUnits="userSpaceOnUse" gradientTransform="translate(587.279 -297.206) rotate(161.54) scale(571.63)">
<stop stop-color="#23AEE3"/>
<stop offset="0.192708" stop-color="#867CDA"/>
<stop offset="0.432292" stop-color="#9B71D8"/>
<stop offset="0.723958" stop-color="#FD3DCE"/>
<stop offset="1" stop-color="#23AEE3"/>
</radialGradient>
<radialGradient id="paint57_radial_907_12245" cx="0" cy="0" r="1" gradientUnits="userSpaceOnUse" gradientTransform="translate(587.932 -304.526) rotate(162.54) scale(570.468)">
<stop stop-color="#23AEE3"/>
<stop offset="0.192708" stop-color="#867CDA"/>
<stop offset="0.432292" stop-color="#9B71D8"/>
<stop offset="0.723958" stop-color="#FD3DCE"/>
<stop offset="1" stop-color="#23AEE3"/>
</radialGradient>
<radialGradient id="paint58_radial_907_12245" cx="0" cy="0" r="1" gradientUnits="userSpaceOnUse" gradientTransform="translate(588.587 -311.844) rotate(163.54) scale(569.306)">
<stop stop-color="#23AEE3"/>
<stop offset="0.192708" stop-color="#867CDA"/>
<stop offset="0.432292" stop-color="#9B71D8"/>
<stop offset="0.723958" stop-color="#FD3DCE"/>
<stop offset="1" stop-color="#23AEE3"/>
</radialGradient>
<radialGradient id="paint59_radial_907_12245" cx="0" cy="0" r="1" gradientUnits="userSpaceOnUse" gradientTransform="translate(589.24 -319.163) rotate(164.54) scale(568.144)">
<stop stop-color="#23AEE3"/>
<stop offset="0.192708" stop-color="#867CDA"/>
<stop offset="0.432292" stop-color="#9B71D8"/>
<stop offset="0.723958" stop-color="#FD3DCE"/>
<stop offset="1" stop-color="#23AEE3"/>
</radialGradient>
<radialGradient id="paint60_radial_907_12245" cx="0" cy="0" r="1" gradientUnits="userSpaceOnUse" gradientTransform="translate(589.895 -326.483) rotate(165.54) scale(566.982)">
<stop stop-color="#23AEE3"/>
<stop offset="0.192708" stop-color="#867CDA"/>
<stop offset="0.432292" stop-color="#9B71D8"/>
<stop offset="0.723958" stop-color="#FD3DCE"/>
<stop offset="1" stop-color="#23AEE3"/>
</radialGradient>
<radialGradient id="paint61_radial_907_12245" cx="0" cy="0" r="1" gradientUnits="userSpaceOnUse" gradientTransform="translate(590.547 -333.802) rotate(166.54) scale(565.82)">
<stop stop-color="#23AEE3"/>
<stop offset="0.192708" stop-color="#867CDA"/>
<stop offset="0.432292" stop-color="#9B71D8"/>
<stop offset="0.723958" stop-color="#FD3DCE"/>
<stop offset="1" stop-color="#23AEE3"/>
</radialGradient>
<radialGradient id="paint62_radial_907_12245" cx="0" cy="0" r="1" gradientUnits="userSpaceOnUse" gradientTransform="translate(591.2 -341.122) rotate(167.54) scale(564.658)">
<stop stop-color="#23AEE3"/>
<stop offset="0.192708" stop-color="#867CDA"/>
<stop offset="0.432292" stop-color="#9B71D8"/>
<stop offset="0.723958" stop-color="#FD3DCE"/>
<stop offset="1" stop-color="#23AEE3"/>
</radialGradient>
<radialGradient id="paint63_radial_907_12245" cx="0" cy="0" r="1" gradientUnits="userSpaceOnUse" gradientTransform="translate(591.855 -348.44) rotate(168.54) scale(563.497)">
<stop stop-color="#23AEE3"/>
<stop offset="0.192708" stop-color="#867CDA"/>
<stop offset="0.432292" stop-color="#9B71D8"/>
<stop offset="0.723958" stop-color="#FD3DCE"/>
<stop offset="1" stop-color="#23AEE3"/>
</radialGradient>
<radialGradient id="paint64_radial_907_12245" cx="0" cy="0" r="1" gradientUnits="userSpaceOnUse" gradientTransform="translate(592.508 -355.759) rotate(169.54) scale(562.335)">
<stop stop-color="#23AEE3"/>
<stop offset="0.192708" stop-color="#867CDA"/>
<stop offset="0.432292" stop-color="#9B71D8"/>
<stop offset="0.723958" stop-color="#FD3DCE"/>
<stop offset="1" stop-color="#23AEE3"/>
</radialGradient>
<radialGradient id="paint65_radial_907_12245" cx="0" cy="0" r="1" gradientUnits="userSpaceOnUse" gradientTransform="translate(593.163 -363.078) rotate(170.54) scale(561.173)">
<stop stop-color="#23AEE3"/>
<stop offset="0.192708" stop-color="#867CDA"/>
<stop offset="0.432292" stop-color="#9B71D8"/>
<stop offset="0.723958" stop-color="#FD3DCE"/>
<stop offset="1" stop-color="#23AEE3"/>
</radialGradient>
<radialGradient id="paint66_radial_907_12245" cx="0" cy="0" r="1" gradientUnits="userSpaceOnUse" gradientTransform="translate(593.817 -370.397) rotate(171.54) scale(560.011)">
<stop stop-color="#23AEE3"/>
<stop offset="0.192708" stop-color="#867CDA"/>
<stop offset="0.432292" stop-color="#9B71D8"/>
<stop offset="0.723958" stop-color="#FD3DCE"/>
<stop offset="1" stop-color="#23AEE3"/>
</radialGradient>
<radialGradient id="paint67_radial_907_12245" cx="0" cy="0" r="1" gradientUnits="userSpaceOnUse" gradientTransform="translate(594.471 -377.716) rotate(172.54) scale(558.849)">
<stop stop-color="#23AEE3"/>
<stop offset="0.192708" stop-color="#867CDA"/>
<stop offset="0.432292" stop-color="#9B71D8"/>
<stop offset="0.723958" stop-color="#FD3DCE"/>
<stop offset="1" stop-color="#23AEE3"/>
</radialGradient>
<radialGradient id="paint68_radial_907_12245" cx="0" cy="0" r="1" gradientUnits="userSpaceOnUse" gradientTransform="translate(595.125 -385.034) rotate(173.54) scale(557.687)">
<stop stop-color="#23AEE3"/>
<stop offset="0.192708" stop-color="#867CDA"/>
<stop offset="0.432292" stop-color="#9B71D8"/>
<stop offset="0.723958" stop-color="#FD3DCE"/>
<stop offset="1" stop-color="#23AEE3"/>
</radialGradient>
<radialGradient id="paint69_radial_907_12245" cx="0" cy="0" r="1" gradientUnits="userSpaceOnUse" gradientTransform="translate(595.778 -392.354) rotate(174.54) scale(556.526)">
<stop stop-color="#23AEE3"/>
<stop offset="0.192708" stop-color="#867CDA"/>
<stop offset="0.432292" stop-color="#9B71D8"/>
<stop offset="0.723958" stop-color="#FD3DCE"/>
<stop offset="1" stop-color="#23AEE3"/>
</radialGradient>
<radialGradient id="paint70_radial_907_12245" cx="0" cy="0" r="1" gradientUnits="userSpaceOnUse" gradientTransform="translate(596.433 -399.672) rotate(175.54) scale(555.364)">
<stop stop-color="#23AEE3"/>
<stop offset="0.192708" stop-color="#867CDA"/>
<stop offset="0.432292" stop-color="#9B71D8"/>
<stop offset="0.723958" stop-color="#FD3DCE"/>
<stop offset="1" stop-color="#23AEE3"/>
</radialGradient>
<radialGradient id="paint71_radial_907_12245" cx="0" cy="0" r="1" gradientUnits="userSpaceOnUse" gradientTransform="translate(597.086 -406.992) rotate(176.54) scale(554.202)">
<stop stop-color="#23AEE3"/>
<stop offset="0.192708" stop-color="#867CDA"/>
<stop offset="0.432292" stop-color="#9B71D8"/>
<stop offset="0.723958" stop-color="#FD3DCE"/>
<stop offset="1" stop-color="#23AEE3"/>
</radialGradient>
<radialGradient id="paint72_radial_907_12245" cx="0" cy="0" r="1" gradientUnits="userSpaceOnUse" gradientTransform="translate(597.74 -414.31) rotate(177.54) scale(553.04)">
<stop stop-color="#23AEE3"/>
<stop offset="0.192708" stop-color="#867CDA"/>
<stop offset="0.432292" stop-color="#9B71D8"/>
<stop offset="0.723958" stop-color="#FD3DCE"/>
<stop offset="1" stop-color="#23AEE3"/>
</radialGradient>
<radialGradient id="paint73_radial_907_12245" cx="0" cy="0" r="1" gradientUnits="userSpaceOnUse" gradientTransform="translate(598.393 -421.63) rotate(178.54) scale(551.878)">
<stop stop-color="#23AEE3"/>
<stop offset="0.192708" stop-color="#867CDA"/>
<stop offset="0.432292" stop-color="#9B71D8"/>
<stop offset="0.723958" stop-color="#FD3DCE"/>
<stop offset="1" stop-color="#23AEE3"/>
</radialGradient>
<radialGradient id="paint74_radial_907_12245" cx="0" cy="0" r="1" gradientUnits="userSpaceOnUse" gradientTransform="translate(599.049 -428.948) rotate(179.54) scale(550.716)">
<stop stop-color="#23AEE3"/>
<stop offset="0.192708" stop-color="#867CDA"/>
<stop offset="0.432292" stop-color="#9B71D8"/>
<stop offset="0.723958" stop-color="#FD3DCE"/>
<stop offset="1" stop-color="#23AEE3"/>
</radialGradient>
<radialGradient id="paint75_radial_907_12245" cx="0" cy="0" r="1" gradientUnits="userSpaceOnUse" gradientTransform="translate(599.703 -436.268) rotate(-179.46) scale(549.555)">
<stop stop-color="#23AEE3"/>
<stop offset="0.192708" stop-color="#867CDA"/>
<stop offset="0.432292" stop-color="#9B71D8"/>
<stop offset="0.723958" stop-color="#FD3DCE"/>
<stop offset="1" stop-color="#23AEE3"/>
</radialGradient>
<radialGradient id="paint76_radial_907_12245" cx="0" cy="0" r="1" gradientUnits="userSpaceOnUse" gradientTransform="translate(600.355 -443.588) rotate(-178.46) scale(548.393)">
<stop stop-color="#23AEE3"/>
<stop offset="0.192708" stop-color="#867CDA"/>
<stop offset="0.432292" stop-color="#9B71D8"/>
<stop offset="0.723958" stop-color="#FD3DCE"/>
<stop offset="1" stop-color="#23AEE3"/>
</radialGradient>
<radialGradient id="paint77_radial_907_12245" cx="0" cy="0" r="1" gradientUnits="userSpaceOnUse" gradientTransform="translate(601.007 -450.907) rotate(-177.46) scale(547.231)">
<stop stop-color="#23AEE3"/>
<stop offset="0.192708" stop-color="#867CDA"/>
<stop offset="0.432292" stop-color="#9B71D8"/>
<stop offset="0.723958" stop-color="#FD3DCE"/>
<stop offset="1" stop-color="#23AEE3"/>
</radialGradient>
<radialGradient id="paint78_radial_907_12245" cx="0" cy="0" r="1" gradientUnits="userSpaceOnUse" gradientTransform="translate(601.663 -458.225) rotate(-176.46) scale(546.069)">
<stop stop-color="#23AEE3"/>
<stop offset="0.192708" stop-color="#867CDA"/>
<stop offset="0.432292" stop-color="#9B71D8"/>
<stop offset="0.723958" stop-color="#FD3DCE"/>
<stop offset="1" stop-color="#23AEE3"/>
</radialGradient>
<radialGradient id="paint79_radial_907_12245" cx="0" cy="0" r="1" gradientUnits="userSpaceOnUse" gradientTransform="translate(602.315 -465.544) rotate(-175.46) scale(544.907)">
<stop stop-color="#23AEE3"/>
<stop offset="0.192708" stop-color="#867CDA"/>
<stop offset="0.432292" stop-color="#9B71D8"/>
<stop offset="0.723958" stop-color="#FD3DCE"/>
<stop offset="1" stop-color="#23AEE3"/>
</radialGradient>
<radialGradient id="paint80_radial_907_12245" cx="0" cy="0" r="1" gradientUnits="userSpaceOnUse" gradientTransform="translate(602.971 -472.864) rotate(-174.46) scale(543.745)">
<stop stop-color="#23AEE3"/>
<stop offset="0.192708" stop-color="#867CDA"/>
<stop offset="0.432292" stop-color="#9B71D8"/>
<stop offset="0.723958" stop-color="#FD3DCE"/>
<stop offset="1" stop-color="#23AEE3"/>
</radialGradient>
<radialGradient id="paint81_radial_907_12245" cx="0" cy="0" r="1" gradientUnits="userSpaceOnUse" gradientTransform="translate(603.624 -480.183) rotate(-173.46) scale(542.583)">
<stop stop-color="#23AEE3"/>
<stop offset="0.192708" stop-color="#867CDA"/>
<stop offset="0.432292" stop-color="#9B71D8"/>
<stop offset="0.723958" stop-color="#FD3DCE"/>
<stop offset="1" stop-color="#23AEE3"/>
</radialGradient>
<radialGradient id="paint82_radial_907_12245" cx="0" cy="0" r="1" gradientUnits="userSpaceOnUse" gradientTransform="translate(604.279 -487.501) rotate(-172.46) scale(541.422)">
<stop stop-color="#23AEE3"/>
<stop offset="0.192708" stop-color="#867CDA"/>
<stop offset="0.432292" stop-color="#9B71D8"/>
<stop offset="0.723958" stop-color="#FD3DCE"/>
<stop offset="1" stop-color="#23AEE3"/>
</radialGradient>
<radialGradient id="paint83_radial_907_12245" cx="0" cy="0" r="1" gradientUnits="userSpaceOnUse" gradientTransform="translate(604.932 -494.82) rotate(-171.46) scale(540.26)">
<stop stop-color="#23AEE3"/>
<stop offset="0.192708" stop-color="#867CDA"/>
<stop offset="0.432292" stop-color="#9B71D8"/>
<stop offset="0.723958" stop-color="#FD3DCE"/>
<stop offset="1" stop-color="#23AEE3"/>
</radialGradient>
<radialGradient id="paint84_radial_907_12245" cx="0" cy="0" r="1" gradientUnits="userSpaceOnUse" gradientTransform="translate(605.587 -502.139) rotate(-170.46) scale(539.098)">
<stop stop-color="#23AEE3"/>
<stop offset="0.192708" stop-color="#867CDA"/>
<stop offset="0.432292" stop-color="#9B71D8"/>
<stop offset="0.723958" stop-color="#FD3DCE"/>
<stop offset="1" stop-color="#23AEE3"/>
</radialGradient>
<radialGradient id="paint85_radial_907_12245" cx="0" cy="0" r="1" gradientUnits="userSpaceOnUse" gradientTransform="translate(606.241 -509.458) rotate(-169.46) scale(537.936)">
<stop stop-color="#23AEE3"/>
<stop offset="0.192708" stop-color="#867CDA"/>
<stop offset="0.432292" stop-color="#9B71D8"/>
<stop offset="0.723958" stop-color="#FD3DCE"/>
<stop offset="1" stop-color="#23AEE3"/>
</radialGradient>
<radialGradient id="paint86_radial_907_12245" cx="0" cy="0" r="1" gradientUnits="userSpaceOnUse" gradientTransform="translate(606.894 -516.777) rotate(-168.46) scale(536.774)">
<stop stop-color="#23AEE3"/>
<stop offset="0.192708" stop-color="#867CDA"/>
<stop offset="0.432292" stop-color="#9B71D8"/>
<stop offset="0.723958" stop-color="#FD3DCE"/>
<stop offset="1" stop-color="#23AEE3"/>
</radialGradient>
<radialGradient id="paint87_radial_907_12245" cx="0" cy="0" r="1" gradientUnits="userSpaceOnUse" gradientTransform="translate(607.548 -524.096) rotate(-167.46) scale(535.612)">
<stop stop-color="#23AEE3"/>
<stop offset="0.192708" stop-color="#867CDA"/>
<stop offset="0.432292" stop-color="#9B71D8"/>
<stop offset="0.723958" stop-color="#FD3DCE"/>
<stop offset="1" stop-color="#23AEE3"/>
</radialGradient>
<radialGradient id="paint88_radial_907_12245" cx="0" cy="0" r="1" gradientUnits="userSpaceOnUse" gradientTransform="translate(608.202 -531.415) rotate(-166.46) scale(534.45)">
<stop stop-color="#23AEE3"/>
<stop offset="0.192708" stop-color="#867CDA"/>
<stop offset="0.432292" stop-color="#9B71D8"/>
<stop offset="0.723958" stop-color="#FD3DCE"/>
<stop offset="1" stop-color="#23AEE3"/>
</radialGradient>
<radialGradient id="paint89_radial_907_12245" cx="0" cy="0" r="1" gradientUnits="userSpaceOnUse" gradientTransform="translate(608.854 -538.734) rotate(-165.46) scale(533.289)">
<stop stop-color="#23AEE3"/>
<stop offset="0.192708" stop-color="#867CDA"/>
<stop offset="0.432292" stop-color="#9B71D8"/>
<stop offset="0.723958" stop-color="#FD3DCE"/>
<stop offset="1" stop-color="#23AEE3"/>
</radialGradient>
<radialGradient id="paint90_radial_907_12245" cx="0" cy="0" r="1" gradientUnits="userSpaceOnUse" gradientTransform="translate(609.51 -546.054) rotate(-164.46) scale(532.127)">
<stop stop-color="#23AEE3"/>
<stop offset="0.192708" stop-color="#867CDA"/>
<stop offset="0.432292" stop-color="#9B71D8"/>
<stop offset="0.723958" stop-color="#FD3DCE"/>
<stop offset="1" stop-color="#23AEE3"/>
</radialGradient>
<radialGradient id="paint91_radial_907_12245" cx="0" cy="0" r="1" gradientUnits="userSpaceOnUse" gradientTransform="translate(610.164 -553.371) rotate(-163.46) scale(530.965)">
<stop stop-color="#23AEE3"/>
<stop offset="0.192708" stop-color="#867CDA"/>
<stop offset="0.432292" stop-color="#9B71D8"/>
<stop offset="0.723958" stop-color="#FD3DCE"/>
<stop offset="1" stop-color="#23AEE3"/>
</radialGradient>
<radialGradient id="paint92_radial_907_12245" cx="0" cy="0" r="1" gradientUnits="userSpaceOnUse" gradientTransform="translate(610.817 -560.691) rotate(-162.46) scale(529.803)">
<stop stop-color="#23AEE3"/>
<stop offset="0.192708" stop-color="#867CDA"/>
<stop offset="0.432292" stop-color="#9B71D8"/>
<stop offset="0.723958" stop-color="#FD3DCE"/>
<stop offset="1" stop-color="#23AEE3"/>
</radialGradient>
<radialGradient id="paint93_radial_907_12245" cx="0" cy="0" r="1" gradientUnits="userSpaceOnUse" gradientTransform="translate(611.469 -568.011) rotate(-161.46) scale(528.641)">
<stop stop-color="#23AEE3"/>
<stop offset="0.192708" stop-color="#867CDA"/>
<stop offset="0.432292" stop-color="#9B71D8"/>
<stop offset="0.723958" stop-color="#FD3DCE"/>
<stop offset="1" stop-color="#23AEE3"/>
</radialGradient>
<radialGradient id="paint94_radial_907_12245" cx="0" cy="0" r="1" gradientUnits="userSpaceOnUse" gradientTransform="translate(612.124 -575.329) rotate(-160.46) scale(527.479)">
<stop stop-color="#23AEE3"/>
<stop offset="0.192708" stop-color="#867CDA"/>
<stop offset="0.432292" stop-color="#9B71D8"/>
<stop offset="0.723958" stop-color="#FD3DCE"/>
<stop offset="1" stop-color="#23AEE3"/>
</radialGradient>
<radialGradient id="paint95_radial_907_12245" cx="0" cy="0" r="1" gradientUnits="userSpaceOnUse" gradientTransform="translate(612.777 -582.649) rotate(-159.46) scale(526.318)">
<stop stop-color="#23AEE3"/>
<stop offset="0.192708" stop-color="#867CDA"/>
<stop offset="0.432292" stop-color="#9B71D8"/>
<stop offset="0.723958" stop-color="#FD3DCE"/>
<stop offset="1" stop-color="#23AEE3"/>
</radialGradient>
<radialGradient id="paint96_radial_907_12245" cx="0" cy="0" r="1" gradientUnits="userSpaceOnUse" gradientTransform="translate(613.433 -589.967) rotate(-158.46) scale(525.156)">
<stop stop-color="#23AEE3"/>
<stop offset="0.192708" stop-color="#867CDA"/>
<stop offset="0.432292" stop-color="#9B71D8"/>
<stop offset="0.723958" stop-color="#FD3DCE"/>
<stop offset="1" stop-color="#23AEE3"/>
</radialGradient>
<radialGradient id="paint97_radial_907_12245" cx="0" cy="0" r="1" gradientUnits="userSpaceOnUse" gradientTransform="translate(614.086 -597.286) rotate(-157.46) scale(523.994)">
<stop stop-color="#23AEE3"/>
<stop offset="0.192708" stop-color="#867CDA"/>
<stop offset="0.432292" stop-color="#9B71D8"/>
<stop offset="0.723958" stop-color="#FD3DCE"/>
<stop offset="1" stop-color="#23AEE3"/>
</radialGradient>
<radialGradient id="paint98_radial_907_12245" cx="0" cy="0" r="1" gradientUnits="userSpaceOnUse" gradientTransform="translate(614.739 -604.605) rotate(-156.46) scale(522.832)">
<stop stop-color="#23AEE3"/>
<stop offset="0.192708" stop-color="#867CDA"/>
<stop offset="0.432292" stop-color="#9B71D8"/>
<stop offset="0.723958" stop-color="#FD3DCE"/>
<stop offset="1" stop-color="#23AEE3"/>
</radialGradient>
</defs>
</svg>
